solid Exported from Blender-3.4.1
facet normal -0.002318 -0.999997 0.001028
outer loop
vertex -0.017549 0.067918 0.041153
vertex -0.035753 0.067947 0.027552
vertex -0.044490 0.067947 0.007998
endloop
endfacet
facet normal -0.000986 -1.000000 -0.000056
outer loop
vertex -0.044490 0.067947 0.007998
vertex -0.043488 0.067947 -0.013840
vertex -0.017549 0.067918 0.041153
endloop
endfacet
facet normal -0.000559 -1.000000 -0.000258
outer loop
vertex -0.017549 0.067918 0.041153
vertex -0.043488 0.067947 -0.013840
vertex -0.032511 0.067946 -0.031996
endloop
endfacet
facet normal -0.855742 -0.002222 -0.517398
outer loop
vertex -0.032511 0.067946 -0.031996
vertex -0.043488 0.067947 -0.013840
vertex -0.031995 0.107645 -0.033020
endloop
endfacet
facet normal 0.516290 0.003302 -0.856407
outer loop
vertex 0.032288 0.067947 -0.032717
vertex 0.015003 0.067947 -0.043138
vertex 0.018734 0.109366 -0.040729
endloop
endfacet
facet normal 0.000072 -1.000000 -0.000310
outer loop
vertex 0.015003 0.067947 -0.043138
vertex -0.017549 0.067918 0.041153
vertex -0.002159 0.067947 -0.045848
endloop
endfacet
facet normal 0.000152 -1.000000 -0.000279
outer loop
vertex -0.017549 0.067918 0.041153
vertex 0.015003 0.067947 -0.043138
vertex 0.032288 0.067947 -0.032717
endloop
endfacet
facet normal 0.000314 -1.000000 -0.000170
outer loop
vertex 0.032288 0.067947 -0.032717
vertex 0.044249 0.067947 -0.010959
vertex -0.017549 0.067918 0.041153
endloop
endfacet
facet normal -0.010101 0.999931 -0.005951
outer loop
vertex -0.029772 0.116500 -0.010183
vertex -0.004978 0.116710 -0.016841
vertex -0.023130 0.116498 -0.021712
endloop
endfacet
facet normal -0.146947 0.017961 -0.988981
outer loop
vertex -0.014618 0.107706 -0.043275
vertex 0.002535 0.107792 -0.045822
vertex -0.002159 0.067947 -0.045848
endloop
endfacet
facet normal 0.155957 -0.017719 -0.987605
outer loop
vertex 0.002535 0.107792 -0.045822
vertex 0.015003 0.067947 -0.043138
vertex -0.002159 0.067947 -0.045848
endloop
endfacet
facet normal 0.297248 0.028731 -0.954368
outer loop
vertex 0.015003 0.067947 -0.043138
vertex 0.002535 0.107792 -0.045822
vertex 0.018734 0.109366 -0.040729
endloop
endfacet
facet normal -0.569985 -0.013774 -0.821539
outer loop
vertex -0.032511 0.067946 -0.031996
vertex -0.031995 0.107645 -0.033020
vertex -0.018407 0.067947 -0.041781
endloop
endfacet
facet normal -0.508209 0.016098 -0.861083
outer loop
vertex -0.014618 0.107706 -0.043275
vertex -0.018407 0.067947 -0.041781
vertex -0.031995 0.107645 -0.033020
endloop
endfacet
facet normal -0.242754 -0.013291 -0.969997
outer loop
vertex -0.018407 0.067947 -0.041781
vertex -0.014618 0.107706 -0.043275
vertex -0.002159 0.067947 -0.045848
endloop
endfacet
facet normal -0.000109 -1.000000 -0.000343
outer loop
vertex -0.017549 0.067918 0.041153
vertex -0.018407 0.067947 -0.041781
vertex -0.002159 0.067947 -0.045848
endloop
endfacet
facet normal -0.000147 -1.000000 -0.000342
outer loop
vertex -0.032511 0.067946 -0.031996
vertex -0.018407 0.067947 -0.041781
vertex -0.017549 0.067918 0.041153
endloop
endfacet
facet normal -0.434272 0.523883 -0.732772
outer loop
vertex -0.014618 0.107706 -0.043275
vertex -0.031995 0.107645 -0.033020
vertex -0.026490 0.110199 -0.034457
endloop
endfacet
facet normal -0.190938 0.846808 -0.496446
outer loop
vertex -0.014618 0.107706 -0.043275
vertex -0.026490 0.110199 -0.034457
vertex -0.012708 0.116395 -0.029188
endloop
endfacet
facet normal -0.258369 0.891358 -0.372459
outer loop
vertex -0.012708 0.116395 -0.029188
vertex -0.026490 0.110199 -0.034457
vertex -0.023130 0.116498 -0.021712
endloop
endfacet
facet normal 0.999430 0.012881 -0.031193
outer loop
vertex 0.044249 0.067947 -0.010959
vertex 0.043665 0.107667 -0.013261
vertex 0.044347 0.107849 0.008666
endloop
endfacet
facet normal 0.876228 -0.015036 -0.481662
outer loop
vertex 0.032288 0.067947 -0.032717
vertex 0.043665 0.107667 -0.013261
vertex 0.044249 0.067947 -0.010959
endloop
endfacet
facet normal 0.175463 0.979361 0.100322
outer loop
vertex 0.030441 0.116597 0.006368
vertex 0.020843 0.116686 0.022290
vertex 0.026043 0.116297 0.016987
endloop
endfacet
facet normal 0.005437 0.999983 -0.002293
outer loop
vertex 0.030441 0.116597 0.006368
vertex 0.000058 0.116708 -0.017260
vertex 0.020843 0.116686 0.022290
endloop
endfacet
facet normal 0.000471 -1.000000 0.000016
outer loop
vertex 0.044249 0.067947 -0.010959
vertex 0.043961 0.067947 0.010402
vertex -0.017549 0.067918 0.041153
endloop
endfacet
facet normal 0.915161 0.008678 0.402995
outer loop
vertex 0.038385 0.067947 0.023065
vertex 0.043961 0.067947 0.010402
vertex 0.044347 0.107849 0.008666
endloop
endfacet
facet normal 0.999868 -0.009088 0.013473
outer loop
vertex 0.043961 0.067947 0.010402
vertex 0.044249 0.067947 -0.010959
vertex 0.044347 0.107849 0.008666
endloop
endfacet
facet normal -0.189164 0.846996 -0.496804
outer loop
vertex -0.012708 0.116395 -0.029188
vertex -0.002747 0.110212 -0.043522
vertex -0.014618 0.107706 -0.043275
endloop
endfacet
facet normal -0.127811 0.522242 -0.843165
outer loop
vertex -0.002747 0.110212 -0.043522
vertex 0.002535 0.107792 -0.045822
vertex -0.014618 0.107706 -0.043275
endloop
endfacet
facet normal 0.108400 0.798777 -0.591781
outer loop
vertex 0.002535 0.107792 -0.045822
vertex -0.002747 0.110212 -0.043522
vertex 0.018734 0.109366 -0.040729
endloop
endfacet
facet normal 0.905137 0.018021 0.424738
outer loop
vertex 0.035089 0.107819 0.028397
vertex 0.038385 0.067947 0.023065
vertex 0.044347 0.107849 0.008666
endloop
endfacet
facet normal 0.743780 -0.027823 0.667845
outer loop
vertex 0.035089 0.107819 0.028397
vertex 0.026222 0.067945 0.036611
vertex 0.038385 0.067947 0.023065
endloop
endfacet
facet normal 0.613381 0.026206 0.789353
outer loop
vertex 0.026222 0.067945 0.036611
vertex 0.035089 0.107819 0.028397
vertex 0.020932 0.107669 0.039403
endloop
endfacet
facet normal 0.430136 0.901453 -0.048639
outer loop
vertex 0.031831 0.115378 -0.003927
vertex 0.030441 0.116597 0.006368
vertex 0.042474 0.110198 -0.005817
endloop
endfacet
facet normal 0.866086 0.498929 -0.031073
outer loop
vertex 0.043665 0.107667 -0.013261
vertex 0.042474 0.110198 -0.005817
vertex 0.044347 0.107849 0.008666
endloop
endfacet
facet normal 0.502101 0.840084 -0.205312
outer loop
vertex 0.033341 0.110222 -0.028054
vertex 0.042474 0.110198 -0.005817
vertex 0.043665 0.107667 -0.013261
endloop
endfacet
facet normal 0.293282 0.869828 -0.396718
outer loop
vertex 0.033341 0.110222 -0.028054
vertex 0.018734 0.109366 -0.040729
vertex 0.015211 0.116396 -0.027920
endloop
endfacet
facet normal -0.144609 0.844666 0.515390
outer loop
vertex -0.005558 0.116581 0.030107
vertex -0.024915 0.110243 0.035063
vertex -0.000366 0.110235 0.041965
endloop
endfacet
facet normal -0.157936 0.815711 0.556481
outer loop
vertex -0.018924 0.107722 0.040460
vertex -0.006021 0.107699 0.044155
vertex -0.024915 0.110243 0.035063
endloop
endfacet
facet normal -0.154553 0.820254 0.550724
outer loop
vertex -0.024915 0.110243 0.035063
vertex -0.006021 0.107699 0.044155
vertex -0.000366 0.110235 0.041965
endloop
endfacet
facet normal 0.375097 0.852854 0.363239
outer loop
vertex 0.022065 0.110223 0.036203
vertex 0.035089 0.107819 0.028397
vertex 0.020843 0.116686 0.022290
endloop
endfacet
facet normal 0.493347 0.586224 0.642612
outer loop
vertex 0.035089 0.107819 0.028397
vertex 0.022065 0.110223 0.036203
vertex 0.020932 0.107669 0.039403
endloop
endfacet
facet normal 0.390742 0.863105 0.319955
outer loop
vertex 0.026043 0.116297 0.016987
vertex 0.020843 0.116686 0.022290
vertex 0.039407 0.110208 0.017092
endloop
endfacet
facet normal 0.392175 0.858208 0.331176
outer loop
vertex 0.035089 0.107819 0.028397
vertex 0.039407 0.110208 0.017092
vertex 0.020843 0.116686 0.022290
endloop
endfacet
facet normal 0.847045 0.352318 0.397980
outer loop
vertex 0.044347 0.107849 0.008666
vertex 0.039407 0.110208 0.017092
vertex 0.035089 0.107819 0.028397
endloop
endfacet
facet normal 0.405555 0.893422 0.193189
outer loop
vertex 0.026043 0.116297 0.016987
vertex 0.039407 0.110208 0.017092
vertex 0.030441 0.116597 0.006368
endloop
endfacet
facet normal 0.524435 0.848582 0.069831
outer loop
vertex 0.042474 0.110198 -0.005817
vertex 0.039407 0.110208 0.017092
vertex 0.044347 0.107849 0.008666
endloop
endfacet
facet normal 0.522392 0.849864 0.069557
outer loop
vertex 0.042474 0.110198 -0.005817
vertex 0.030441 0.116597 0.006368
vertex 0.039407 0.110208 0.017092
endloop
endfacet
facet normal 0.861449 0.002019 -0.507839
outer loop
vertex 0.032802 0.107821 -0.031687
vertex 0.043665 0.107667 -0.013261
vertex 0.032288 0.067947 -0.032717
endloop
endfacet
facet normal 0.750474 0.494668 -0.438284
outer loop
vertex 0.043665 0.107667 -0.013261
vertex 0.032802 0.107821 -0.031687
vertex 0.033341 0.110222 -0.028054
endloop
endfacet
facet normal 0.541757 0.014730 -0.840406
outer loop
vertex 0.018734 0.109366 -0.040729
vertex 0.032802 0.107821 -0.031687
vertex 0.032288 0.067947 -0.032717
endloop
endfacet
facet normal 0.427606 0.723708 -0.541664
outer loop
vertex 0.033341 0.110222 -0.028054
vertex 0.032802 0.107821 -0.031687
vertex 0.018734 0.109366 -0.040729
endloop
endfacet
facet normal 0.332887 0.940625 -0.066412
outer loop
vertex 0.031831 0.115378 -0.003927
vertex 0.026410 0.116304 -0.017991
vertex 0.030441 0.116597 0.006368
endloop
endfacet
facet normal 0.301858 0.893610 -0.332180
outer loop
vertex 0.015211 0.116396 -0.027920
vertex 0.026410 0.116304 -0.017991
vertex 0.033341 0.110222 -0.028054
endloop
endfacet
facet normal 0.420521 0.901443 -0.102771
outer loop
vertex 0.042474 0.110198 -0.005817
vertex 0.026410 0.116304 -0.017991
vertex 0.031831 0.115378 -0.003927
endloop
endfacet
facet normal 0.473270 0.859414 -0.193453
outer loop
vertex 0.026410 0.116304 -0.017991
vertex 0.042474 0.110198 -0.005817
vertex 0.033341 0.110222 -0.028054
endloop
endfacet
facet normal 0.000880 1.000000 0.000102
outer loop
vertex 0.000058 0.116708 -0.017260
vertex 0.001215 0.116703 0.027605
vertex 0.020843 0.116686 0.022290
endloop
endfacet
facet normal 0.000469 1.000000 0.000112
outer loop
vertex -0.004978 0.116710 -0.016841
vertex 0.001215 0.116703 0.027605
vertex 0.000058 0.116708 -0.017260
endloop
endfacet
facet normal -0.001431 0.999999 0.000377
outer loop
vertex -0.003764 0.116700 0.015884
vertex 0.001215 0.116703 0.027605
vertex -0.004978 0.116710 -0.016841
endloop
endfacet
facet normal 0.217961 0.892294 0.395354
outer loop
vertex 0.020843 0.116686 0.022290
vertex 0.008139 0.116409 0.029918
vertex 0.022065 0.110223 0.036203
endloop
endfacet
facet normal 0.164300 0.860240 0.482694
outer loop
vertex 0.022065 0.110223 0.036203
vertex 0.008139 0.116409 0.029918
vertex 0.006310 0.110192 0.041620
endloop
endfacet
facet normal 0.019392 0.997465 0.068462
outer loop
vertex 0.001215 0.116703 0.027605
vertex 0.008139 0.116409 0.029918
vertex 0.020843 0.116686 0.022290
endloop
endfacet
facet normal 0.013699 0.996256 0.085359
outer loop
vertex -0.005558 0.116581 0.030107
vertex 0.008139 0.116409 0.029918
vertex 0.001215 0.116703 0.027605
endloop
endfacet
facet normal 0.030046 0.880758 0.472612
outer loop
vertex 0.006310 0.110192 0.041620
vertex 0.008139 0.116409 0.029918
vertex -0.000366 0.110235 0.041965
endloop
endfacet
facet normal 0.017561 0.884704 0.465822
outer loop
vertex -0.000366 0.110235 0.041965
vertex 0.008139 0.116409 0.029918
vertex -0.005558 0.116581 0.030107
endloop
endfacet
facet normal -0.201620 0.902159 0.381389
outer loop
vertex -0.024915 0.110243 0.035063
vertex -0.014938 0.115620 0.027618
vertex -0.021594 0.116543 0.021918
endloop
endfacet
facet normal -0.191427 0.908862 0.370574
outer loop
vertex -0.021594 0.116543 0.021918
vertex -0.014938 0.115620 0.027618
vertex -0.005558 0.116581 0.030107
endloop
endfacet
facet normal -0.195346 0.900471 0.388576
outer loop
vertex -0.005558 0.116581 0.030107
vertex -0.014938 0.115620 0.027618
vertex -0.024915 0.110243 0.035063
endloop
endfacet
facet normal -0.998858 -0.013499 -0.045829
outer loop
vertex -0.043488 0.067947 -0.013840
vertex -0.044490 0.067947 0.007998
vertex -0.044128 0.107626 -0.011583
endloop
endfacet
facet normal -0.870189 0.013980 -0.492519
outer loop
vertex -0.043488 0.067947 -0.013840
vertex -0.044128 0.107626 -0.011583
vertex -0.031995 0.107645 -0.033020
endloop
endfacet
facet normal -0.000471 0.999937 -0.011181
outer loop
vertex 0.000058 0.116708 -0.017260
vertex 0.002119 0.116545 -0.031955
vertex -0.004978 0.116710 -0.016841
endloop
endfacet
facet normal -0.092589 0.889266 -0.447921
outer loop
vertex 0.002119 0.116545 -0.031955
vertex -0.002747 0.110212 -0.043522
vertex -0.012708 0.116395 -0.029188
endloop
endfacet
facet normal 0.099939 0.854444 -0.509840
outer loop
vertex -0.002747 0.110212 -0.043522
vertex 0.002119 0.116545 -0.031955
vertex 0.018734 0.109366 -0.040729
endloop
endfacet
facet normal 0.147048 0.883622 -0.444509
outer loop
vertex 0.015211 0.116396 -0.027920
vertex 0.018734 0.109366 -0.040729
vertex 0.002119 0.116545 -0.031955
endloop
endfacet
facet normal -0.007776 0.999863 -0.014612
outer loop
vertex -0.023130 0.116498 -0.021712
vertex -0.004978 0.116710 -0.016841
vertex 0.002119 0.116545 -0.031955
endloop
endfacet
facet normal -0.017123 0.999144 -0.037650
outer loop
vertex -0.023130 0.116498 -0.021712
vertex 0.002119 0.116545 -0.031955
vertex -0.012708 0.116395 -0.029188
endloop
endfacet
facet normal 0.068942 0.997346 -0.023420
outer loop
vertex 0.026410 0.116304 -0.017991
vertex 0.022156 0.116536 -0.020606
vertex 0.030441 0.116597 0.006368
endloop
endfacet
facet normal 0.007100 0.999965 -0.004432
outer loop
vertex 0.000058 0.116708 -0.017260
vertex 0.030441 0.116597 0.006368
vertex 0.022156 0.116536 -0.020606
endloop
endfacet
facet normal 0.155571 0.973702 -0.166442
outer loop
vertex 0.026410 0.116304 -0.017991
vertex 0.015211 0.116396 -0.027920
vertex 0.022156 0.116536 -0.020606
endloop
endfacet
facet normal 0.006220 0.999928 -0.010245
outer loop
vertex 0.002119 0.116545 -0.031955
vertex 0.000058 0.116708 -0.017260
vertex 0.022156 0.116536 -0.020606
endloop
endfacet
facet normal -0.011176 0.999936 0.001508
outer loop
vertex -0.021594 0.116543 0.021918
vertex -0.014550 0.116625 0.019439
vertex -0.029772 0.116500 -0.010183
endloop
endfacet
facet normal -0.008472 0.999964 0.000119
outer loop
vertex -0.029772 0.116500 -0.010183
vertex -0.014550 0.116625 0.019439
vertex -0.004978 0.116710 -0.016841
endloop
endfacet
facet normal -0.006746 0.999977 0.000573
outer loop
vertex -0.003764 0.116700 0.015884
vertex -0.004978 0.116710 -0.016841
vertex -0.014550 0.116625 0.019439
endloop
endfacet
facet normal 0.328721 0.186188 0.925892
outer loop
vertex 0.007990 0.107683 0.043994
vertex 0.000582 0.083213 0.051545
vertex 0.020932 0.107669 0.039403
endloop
endfacet
facet normal 0.233464 0.717937 0.655790
outer loop
vertex 0.022065 0.110223 0.036203
vertex 0.007990 0.107683 0.043994
vertex 0.020932 0.107669 0.039403
endloop
endfacet
facet normal 0.216159 0.743482 0.632859
outer loop
vertex 0.022065 0.110223 0.036203
vertex 0.006310 0.110192 0.041620
vertex 0.007990 0.107683 0.043994
endloop
endfacet
facet normal 0.530961 0.011156 0.847323
outer loop
vertex 0.020932 0.107669 0.039403
vertex 0.003559 0.079386 0.050662
vertex 0.026222 0.067945 0.036611
endloop
endfacet
facet normal 0.409270 0.109210 0.905854
outer loop
vertex 0.000582 0.083213 0.051545
vertex 0.003559 0.079386 0.050662
vertex 0.020932 0.107669 0.039403
endloop
endfacet
facet normal -0.267831 0.226113 0.936557
outer loop
vertex -0.006021 0.107699 0.044155
vertex -0.018924 0.107722 0.040460
vertex -0.002396 0.082875 0.051185
endloop
endfacet
facet normal -0.144132 0.250092 0.957434
outer loop
vertex 0.000582 0.083213 0.051545
vertex -0.006021 0.107699 0.044155
vertex -0.002396 0.082875 0.051185
endloop
endfacet
facet normal -0.548992 -0.004404 0.835816
outer loop
vertex -0.017549 0.067918 0.041153
vertex -0.002396 0.082875 0.051185
vertex -0.018924 0.107722 0.040460
endloop
endfacet
facet normal -0.411510 0.858061 0.307231
outer loop
vertex -0.024915 0.110243 0.035063
vertex -0.021594 0.116543 0.021918
vertex -0.034197 0.107806 0.029439
endloop
endfacet
facet normal -0.419052 0.858619 0.295244
outer loop
vertex -0.040346 0.110198 0.013755
vertex -0.034197 0.107806 0.029439
vertex -0.021594 0.116543 0.021918
endloop
endfacet
facet normal -0.551055 0.330581 0.766195
outer loop
vertex -0.024915 0.110243 0.035063
vertex -0.034197 0.107806 0.029439
vertex -0.018924 0.107722 0.040460
endloop
endfacet
facet normal -0.585158 -0.006089 0.810897
outer loop
vertex -0.017549 0.067918 0.041153
vertex -0.018924 0.107722 0.040460
vertex -0.034197 0.107806 0.029439
endloop
endfacet
facet normal -0.598508 -0.014572 0.800984
outer loop
vertex -0.017549 0.067918 0.041153
vertex -0.034197 0.107806 0.029439
vertex -0.035753 0.067947 0.027552
endloop
endfacet
facet normal -0.419048 0.858624 0.295233
outer loop
vertex -0.021594 0.116543 0.021918
vertex -0.028425 0.116458 0.012468
vertex -0.040346 0.110198 0.013755
endloop
endfacet
facet normal -0.450864 0.883968 0.123782
outer loop
vertex -0.040346 0.110198 0.013755
vertex -0.028425 0.116458 0.012468
vertex -0.031180 0.116391 0.002915
endloop
endfacet
facet normal -0.016254 0.999864 0.002801
outer loop
vertex -0.021594 0.116543 0.021918
vertex -0.029772 0.116500 -0.010183
vertex -0.028425 0.116458 0.012468
endloop
endfacet
facet normal -0.038727 0.999241 0.004138
outer loop
vertex -0.031180 0.116391 0.002915
vertex -0.028425 0.116458 0.012468
vertex -0.029772 0.116500 -0.010183
endloop
endfacet
facet normal -0.530739 0.846812 0.035010
outer loop
vertex -0.042019 0.110203 -0.011725
vertex -0.040346 0.110198 0.013755
vertex -0.031180 0.116391 0.002915
endloop
endfacet
facet normal -0.452759 0.890678 -0.041263
outer loop
vertex -0.031180 0.116391 0.002915
vertex -0.029772 0.116500 -0.010183
vertex -0.042019 0.110203 -0.011725
endloop
endfacet
facet normal -0.717977 0.565476 -0.405889
outer loop
vertex -0.044128 0.107626 -0.011583
vertex -0.042019 0.110203 -0.011725
vertex -0.031995 0.107645 -0.033020
endloop
endfacet
facet normal -0.419448 0.874989 -0.241780
outer loop
vertex -0.023130 0.116498 -0.021712
vertex -0.042019 0.110203 -0.011725
vertex -0.029772 0.116500 -0.010183
endloop
endfacet
facet normal -0.466053 0.825429 -0.318528
outer loop
vertex -0.042019 0.110203 -0.011725
vertex -0.026490 0.110199 -0.034457
vertex -0.031995 0.107645 -0.033020
endloop
endfacet
facet normal -0.441124 0.845285 -0.301500
outer loop
vertex -0.026490 0.110199 -0.034457
vertex -0.042019 0.110203 -0.011725
vertex -0.023130 0.116498 -0.021712
endloop
endfacet
facet normal 0.024846 0.998733 -0.043756
outer loop
vertex 0.002119 0.116545 -0.031955
vertex 0.019199 0.116511 -0.023027
vertex 0.015211 0.116396 -0.027920
endloop
endfacet
facet normal 0.032161 0.998246 -0.049703
outer loop
vertex 0.022156 0.116536 -0.020606
vertex 0.015211 0.116396 -0.027920
vertex 0.019199 0.116511 -0.023027
endloop
endfacet
facet normal 0.020551 0.999156 -0.035561
outer loop
vertex 0.022156 0.116536 -0.020606
vertex 0.019199 0.116511 -0.023027
vertex 0.002119 0.116545 -0.031955
endloop
endfacet
facet normal -0.005016 0.999986 0.001901
outer loop
vertex 0.001215 0.116703 0.027605
vertex -0.003764 0.116700 0.015884
vertex -0.000000 0.116696 0.027715
endloop
endfacet
facet normal -0.006186 0.999978 0.002271
outer loop
vertex -0.014550 0.116625 0.019439
vertex -0.000000 0.116696 0.027715
vertex -0.003764 0.116700 0.015884
endloop
endfacet
facet normal -0.009102 0.999931 0.007396
outer loop
vertex -0.021594 0.116543 0.021918
vertex -0.000000 0.116696 0.027715
vertex -0.014550 0.116625 0.019439
endloop
endfacet
facet normal -0.012323 0.999736 0.019410
outer loop
vertex -0.005558 0.116581 0.030107
vertex -0.000000 0.116696 0.027715
vertex -0.021594 0.116543 0.021918
endloop
endfacet
facet normal -0.001072 0.998963 0.045517
outer loop
vertex 0.001215 0.116703 0.027605
vertex -0.000000 0.116696 0.027715
vertex -0.005558 0.116581 0.030107
endloop
endfacet
facet normal 0.000472 -0.999981 0.006114
outer loop
vertex 0.012867 0.067934 0.041274
vertex 0.000397 0.067948 0.044604
vertex -0.017549 0.067918 0.041153
endloop
endfacet
facet normal 0.001146 -0.999999 0.000868
outer loop
vertex 0.026222 0.067945 0.036611
vertex 0.012867 0.067934 0.041274
vertex 0.038385 0.067947 0.023065
endloop
endfacet
facet normal 0.294551 -0.451141 0.842444
outer loop
vertex 0.003559 0.079386 0.050662
vertex 0.012867 0.067934 0.041274
vertex 0.026222 0.067945 0.036611
endloop
endfacet
facet normal 0.000769 -1.000000 0.000344
outer loop
vertex 0.012867 0.067934 0.041274
vertex 0.043961 0.067947 0.010402
vertex 0.038385 0.067947 0.023065
endloop
endfacet
facet normal 0.000496 -1.000000 0.000067
outer loop
vertex 0.043961 0.067947 0.010402
vertex 0.012867 0.067934 0.041274
vertex -0.017549 0.067918 0.041153
endloop
endfacet
facet normal -0.049254 0.276390 0.959782
outer loop
vertex 0.000582 0.083213 0.051545
vertex -0.000000 0.107696 0.044465
vertex -0.006021 0.107699 0.044155
endloop
endfacet
facet normal 0.056903 0.278608 0.958718
outer loop
vertex 0.007990 0.107683 0.043994
vertex -0.000000 0.107696 0.044465
vertex 0.000582 0.083213 0.051545
endloop
endfacet
facet normal -0.036470 0.698497 0.714683
outer loop
vertex -0.006021 0.107699 0.044155
vertex -0.000000 0.107696 0.044465
vertex -0.000366 0.110235 0.041965
endloop
endfacet
facet normal 0.041125 0.704051 0.708958
outer loop
vertex 0.006310 0.110192 0.041620
vertex -0.000366 0.110235 0.041965
vertex -0.000000 0.107696 0.044465
endloop
endfacet
facet normal 0.043066 0.701684 0.711186
outer loop
vertex 0.007990 0.107683 0.043994
vertex 0.006310 0.110192 0.041620
vertex -0.000000 0.107696 0.044465
endloop
endfacet
facet normal -0.156208 -0.554770 0.817209
outer loop
vertex 0.000397 0.067948 0.044604
vertex -0.001663 0.078779 0.051563
vertex -0.017549 0.067918 0.041153
endloop
endfacet
facet normal -0.538999 -0.018742 0.842098
outer loop
vertex -0.017549 0.067918 0.041153
vertex -0.001663 0.078779 0.051563
vertex -0.002396 0.082875 0.051185
endloop
endfacet
facet normal 0.179173 -0.086825 0.979979
outer loop
vertex 0.003559 0.079386 0.050662
vertex 0.000582 0.083213 0.051545
vertex -0.001663 0.078779 0.051563
endloop
endfacet
facet normal -0.127361 0.068457 0.989491
outer loop
vertex -0.002396 0.082875 0.051185
vertex -0.001663 0.078779 0.051563
vertex 0.000582 0.083213 0.051545
endloop
endfacet
facet normal -0.773810 0.633416 -0.001556
outer loop
vertex -0.042019 0.110203 -0.011725
vertex -0.044128 0.107626 -0.011583
vertex -0.044094 0.107721 0.009898
endloop
endfacet
facet normal -0.577928 0.815197 0.038103
outer loop
vertex -0.042019 0.110203 -0.011725
vertex -0.044094 0.107721 0.009898
vertex -0.040346 0.110198 0.013755
endloop
endfacet
facet normal -0.999950 0.009900 0.001566
outer loop
vertex -0.044128 0.107626 -0.011583
vertex -0.044490 0.067947 0.007998
vertex -0.044094 0.107721 0.009898
endloop
endfacet
facet normal -0.748370 0.545962 0.376653
outer loop
vertex -0.034197 0.107806 0.029439
vertex -0.040346 0.110198 0.013755
vertex -0.044094 0.107721 0.009898
endloop
endfacet
facet normal -0.912943 -0.010382 0.407956
outer loop
vertex -0.035753 0.067947 0.027552
vertex -0.044094 0.107721 0.009898
vertex -0.044490 0.067947 0.007998
endloop
endfacet
facet normal -0.892058 0.013423 0.451722
outer loop
vertex -0.034197 0.107806 0.029439
vertex -0.044094 0.107721 0.009898
vertex -0.035753 0.067947 0.027552
endloop
endfacet
facet normal 0.219078 -0.524374 0.822823
outer loop
vertex 0.012867 0.067934 0.041274
vertex 0.001387 0.076706 0.049921
vertex 0.000397 0.067948 0.044604
endloop
endfacet
facet normal 0.281764 -0.460821 0.841578
outer loop
vertex 0.012867 0.067934 0.041274
vertex 0.003559 0.079386 0.050662
vertex 0.001387 0.076706 0.049921
endloop
endfacet
facet normal 0.098493 -0.524594 0.845636
outer loop
vertex 0.001387 0.076706 0.049921
vertex -0.001663 0.078779 0.051563
vertex 0.000397 0.067948 0.044604
endloop
endfacet
facet normal 0.201103 -0.408872 0.890158
outer loop
vertex -0.001663 0.078779 0.051563
vertex 0.001387 0.076706 0.049921
vertex 0.003559 0.079386 0.050662
endloop
endfacet
endsolid Exported from Blender-3.4.1
