solid Exported from Blender-3.4.1
facet normal -0.000000 -0.000000 -1.000000
outer loop
vertex 0.061396 -0.072546 -0.000000
vertex -0.052961 -0.078867 0.000000
vertex 0.095023 0.001734 -0.000000
endloop
endfacet
facet normal -0.999988 0.004013 -0.002697
outer loop
vertex -0.094853 0.005264 -0.000000
vertex -0.094895 -0.005241 0.000000
vertex -0.094929 -0.001919 0.017480
endloop
endfacet
facet normal -0.198223 -0.980153 -0.002882
outer loop
vertex -0.024342 -0.091870 0.000000
vertex -0.013994 -0.093962 0.000000
vertex -0.020682 -0.092661 0.017518
endloop
endfacet
facet normal -0.000004 0.000002 1.000000
outer loop
vertex -0.064944 0.037495 0.099299
vertex -0.048203 0.057446 0.099299
vertex -0.054546 0.051461 0.099299
endloop
endfacet
facet normal -0.000003 0.000001 -1.000000
outer loop
vertex -0.094853 0.005264 -0.000000
vertex -0.090429 0.029384 0.000000
vertex -0.079832 0.051494 -0.000000
endloop
endfacet
facet normal -0.000003 -0.000002 -1.000000
outer loop
vertex -0.086628 -0.039197 0.000000
vertex -0.061870 -0.072169 0.000000
vertex -0.071852 -0.062242 0.000000
endloop
endfacet
facet normal -0.000016 -0.000005 -1.000000
outer loop
vertex -0.086628 -0.039197 0.000000
vertex -0.091422 -0.025974 0.000000
vertex -0.093688 -0.015727 0.000000
endloop
endfacet
facet normal -0.000002 -0.000001 -1.000000
outer loop
vertex -0.061870 -0.072169 0.000000
vertex -0.093688 -0.015727 0.000000
vertex -0.052961 -0.078867 0.000000
endloop
endfacet
facet normal -0.000002 -0.000001 -1.000000
outer loop
vertex -0.061870 -0.072169 0.000000
vertex -0.086628 -0.039197 0.000000
vertex -0.093688 -0.015727 0.000000
endloop
endfacet
facet normal -0.000019 -0.000001 -1.000000
outer loop
vertex -0.094895 -0.005241 0.000000
vertex -0.094853 0.005264 -0.000000
vertex -0.093688 -0.015727 0.000000
endloop
endfacet
facet normal -0.903912 0.383537 0.189320
outer loop
vertex -0.088497 0.032109 0.022240
vertex -0.084278 0.042120 0.022104
vertex -0.086578 0.038963 0.017518
endloop
endfacet
facet normal 0.000000 0.000005 1.000000
outer loop
vertex -0.054546 0.051461 0.099299
vertex -0.060151 0.044781 0.099299
vertex -0.064944 0.037495 0.099299
endloop
endfacet
facet normal -0.743499 0.623870 0.240822
outer loop
vertex -0.075247 0.056824 0.021497
vertex -0.060151 0.044781 0.099299
vertex -0.054546 0.051461 0.099299
endloop
endfacet
facet normal -0.743331 0.624082 0.240792
outer loop
vertex -0.068299 0.064954 0.021874
vertex -0.075247 0.056824 0.021497
vertex -0.054546 0.051461 0.099299
endloop
endfacet
facet normal -0.665964 0.705879 0.241304
outer loop
vertex -0.048203 0.057446 0.099299
vertex -0.068299 0.064954 0.021874
vertex -0.054546 0.051461 0.099299
endloop
endfacet
facet normal -0.000002 -0.000000 1.000000
outer loop
vertex -0.017294 -0.072969 0.099299
vertex -0.008706 -0.074483 0.099299
vertex -0.064944 0.037495 0.099299
endloop
endfacet
facet normal -0.000000 -0.000000 -1.000000
outer loop
vertex 0.061396 -0.072546 -0.000000
vertex -0.034317 -0.088584 0.000000
vertex -0.052961 -0.078867 0.000000
endloop
endfacet
facet normal -0.000003 -0.000011 -1.000000
outer loop
vertex -0.024342 -0.091870 0.000000
vertex -0.034317 -0.088584 0.000000
vertex -0.013994 -0.093962 0.000000
endloop
endfacet
facet normal -0.000016 -0.000031 -1.000000
outer loop
vertex -0.052961 -0.078867 0.000000
vertex -0.034317 -0.088584 0.000000
vertex -0.043420 -0.084565 0.000000
endloop
endfacet
facet normal -0.999530 0.029652 0.007841
outer loop
vertex -0.094629 0.008108 0.017747
vertex -0.094853 0.005264 -0.000000
vertex -0.094929 -0.001919 0.017480
endloop
endfacet
facet normal 0.000000 -0.000000 1.000000
outer loop
vertex 0.008706 -0.074483 0.099299
vertex 0.017294 -0.072969 0.099299
vertex -0.064944 0.037495 0.099299
endloop
endfacet
facet normal -0.000000 -0.000000 1.000000
outer loop
vertex -0.064944 0.037495 0.099299
vertex 0.017294 -0.072969 0.099299
vertex 0.025648 -0.070468 0.099299
endloop
endfacet
facet normal 0.168480 -0.955503 0.242134
outer loop
vertex 0.014017 -0.093102 0.022131
vertex 0.017294 -0.072969 0.099299
vertex 0.008706 -0.074483 0.099299
endloop
endfacet
facet normal 0.000000 -0.000000 1.000000
outer loop
vertex 0.025648 -0.070468 0.099299
vertex 0.033656 -0.067014 0.099299
vertex -0.064944 0.037495 0.099299
endloop
endfacet
facet normal 0.000001 -0.000000 1.000000
outer loop
vertex 0.064944 -0.037495 0.099299
vertex 0.068857 -0.029702 0.099299
vertex -0.064944 0.037495 0.099299
endloop
endfacet
facet normal 0.000000 -0.000000 1.000000
outer loop
vertex 0.060151 -0.044781 0.099299
vertex 0.064944 -0.037495 0.099299
vertex -0.064944 0.037495 0.099299
endloop
endfacet
facet normal -0.000001 -0.000000 1.000000
outer loop
vertex 0.048203 -0.057446 0.099299
vertex 0.054546 -0.051461 0.099299
vertex -0.064944 0.037495 0.099299
endloop
endfacet
facet normal 0.000001 -0.000000 1.000000
outer loop
vertex -0.064944 0.037495 0.099299
vertex 0.054546 -0.051461 0.099299
vertex 0.060151 -0.044781 0.099299
endloop
endfacet
facet normal 0.743356 -0.623749 0.241575
outer loop
vertex 0.054546 -0.051461 0.099299
vertex 0.075099 -0.057156 0.021350
vertex 0.060151 -0.044781 0.099299
endloop
endfacet
facet normal 0.384176 -0.890617 0.243331
outer loop
vertex 0.025648 -0.070468 0.099299
vertex 0.037097 -0.086575 0.022271
vertex 0.033656 -0.067014 0.099299
endloop
endfacet
facet normal 0.435887 -0.867477 0.239764
outer loop
vertex 0.033656 -0.067014 0.099299
vertex 0.037097 -0.086575 0.022271
vertex 0.046196 -0.082055 0.022081
endloop
endfacet
facet normal -0.000000 0.000000 1.000000
outer loop
vertex 0.068857 0.029702 0.099299
vertex 0.064943 0.037495 0.099299
vertex -0.064944 0.037495 0.099299
endloop
endfacet
facet normal 0.000000 0.000000 1.000000
outer loop
vertex 0.073851 0.013022 0.099299
vertex 0.071840 0.021507 0.099299
vertex -0.064944 0.037495 0.099299
endloop
endfacet
facet normal 0.000000 0.000000 1.000000
outer loop
vertex -0.064944 0.037495 0.099299
vertex 0.071840 0.021507 0.099299
vertex 0.068857 0.029702 0.099299
endloop
endfacet
facet normal -0.000001 -0.000000 1.000000
outer loop
vertex 0.073851 -0.013022 0.099299
vertex 0.074863 -0.004360 0.099299
vertex -0.064944 0.037495 0.099299
endloop
endfacet
facet normal -0.000000 0.000000 1.000000
outer loop
vertex -0.064944 0.037495 0.099299
vertex 0.074863 0.004360 0.099299
vertex 0.073851 0.013022 0.099299
endloop
endfacet
facet normal 0.000001 0.000000 1.000000
outer loop
vertex 0.074863 -0.004360 0.099299
vertex 0.074863 0.004360 0.099299
vertex -0.064944 0.037495 0.099299
endloop
endfacet
facet normal 0.957694 -0.287778 -0.002293
outer loop
vertex 0.089229 -0.032726 0.000000
vertex 0.092271 -0.022603 0.000000
vertex 0.090355 -0.029118 0.017681
endloop
endfacet
facet normal -0.000003 0.000003 -1.000000
outer loop
vertex -0.064079 0.070246 0.000000
vertex -0.043909 0.084242 -0.000000
vertex -0.079832 0.051494 -0.000000
endloop
endfacet
facet normal -0.924388 0.381416 -0.005341
outer loop
vertex -0.086578 0.038963 0.017518
vertex -0.085065 0.042385 0.000000
vertex -0.090429 0.029384 0.000000
endloop
endfacet
facet normal -0.000009 0.000004 -1.000000
outer loop
vertex -0.090429 0.029384 0.000000
vertex -0.085065 0.042385 0.000000
vertex -0.079832 0.051494 -0.000000
endloop
endfacet
facet normal -0.071173 0.977047 0.200781
outer loop
vertex -0.003673 0.094877 0.017480
vertex -0.013812 0.093114 0.022467
vertex 0.000341 0.094175 0.022320
endloop
endfacet
facet normal -0.979714 0.156605 0.125039
outer loop
vertex -0.092465 0.021787 0.017575
vertex -0.094629 0.008108 0.017747
vertex -0.092793 0.015904 0.022371
endloop
endfacet
facet normal -0.669238 0.714797 0.202941
outer loop
vertex -0.068299 0.064954 0.021874
vertex -0.060906 0.071982 0.021497
vertex -0.064358 0.069855 0.017609
endloop
endfacet
facet normal -0.662300 0.709520 0.240706
outer loop
vertex -0.048203 0.057446 0.099299
vertex -0.060906 0.071982 0.021497
vertex -0.068299 0.064954 0.021874
endloop
endfacet
facet normal -0.808758 0.565195 0.162682
outer loop
vertex -0.075888 0.057052 0.017518
vertex -0.079898 0.051266 0.017681
vertex -0.075247 0.056824 0.021497
endloop
endfacet
facet normal -0.821803 0.569756 0.004261
outer loop
vertex -0.079832 0.051494 -0.000000
vertex -0.079898 0.051266 0.017681
vertex -0.075888 0.057052 0.017518
endloop
endfacet
facet normal -0.000006 0.000006 -1.000000
outer loop
vertex -0.064079 0.070246 0.000000
vertex -0.079832 0.051494 -0.000000
vertex -0.073659 0.060057 0.000000
endloop
endfacet
facet normal -0.811200 0.584762 -0.002886
outer loop
vertex -0.075888 0.057052 0.017518
vertex -0.073659 0.060057 0.000000
vertex -0.079832 0.051494 -0.000000
endloop
endfacet
facet normal -0.750778 0.632825 0.189382
outer loop
vertex -0.068299 0.064954 0.021874
vertex -0.071446 0.062535 0.017480
vertex -0.075247 0.056824 0.021497
endloop
endfacet
facet normal -0.766600 0.622091 0.159148
outer loop
vertex -0.075888 0.057052 0.017518
vertex -0.075247 0.056824 0.021497
vertex -0.071446 0.062535 0.017480
endloop
endfacet
facet normal -0.713247 0.688388 0.131916
outer loop
vertex -0.068299 0.064954 0.021874
vertex -0.064358 0.069855 0.017609
vertex -0.071446 0.062535 0.017480
endloop
endfacet
facet normal -0.776968 0.629474 0.009140
outer loop
vertex -0.073659 0.060057 0.000000
vertex -0.075888 0.057052 0.017518
vertex -0.071446 0.062535 0.017480
endloop
endfacet
facet normal -0.718396 0.695622 0.004071
outer loop
vertex -0.064079 0.070246 0.000000
vertex -0.071446 0.062535 0.017480
vertex -0.064358 0.069855 0.017609
endloop
endfacet
facet normal -0.728511 0.685017 -0.004869
outer loop
vertex -0.073659 0.060057 0.000000
vertex -0.071446 0.062535 0.017480
vertex -0.064079 0.070246 0.000000
endloop
endfacet
facet normal 0.000000 -0.000000 1.000000
outer loop
vertex -0.064944 0.037495 0.099299
vertex 0.000000 -0.074990 0.099299
vertex 0.008706 -0.074483 0.099299
endloop
endfacet
facet normal 0.000000 -0.000000 1.000000
outer loop
vertex -0.008706 -0.074483 0.099299
vertex 0.000000 -0.074990 0.099299
vertex -0.064944 0.037495 0.099299
endloop
endfacet
facet normal -0.166083 -0.986063 0.009829
outer loop
vertex -0.013994 -0.093962 0.000000
vertex -0.009982 -0.094462 0.017675
vertex -0.020682 -0.092661 0.017518
endloop
endfacet
facet normal -0.104020 -0.994565 -0.004498
outer loop
vertex -0.004718 -0.094933 0.000000
vertex -0.009982 -0.094462 0.017675
vertex -0.013994 -0.093962 0.000000
endloop
endfacet
facet normal -0.982186 0.004879 0.187845
outer loop
vertex -0.094023 -0.005088 0.022301
vertex -0.094000 0.005231 0.022150
vertex -0.094929 -0.001919 0.017480
endloop
endfacet
facet normal -0.987183 0.025295 0.157574
outer loop
vertex -0.094929 -0.001919 0.017480
vertex -0.094000 0.005231 0.022150
vertex -0.094629 0.008108 0.017747
endloop
endfacet
facet normal -0.972404 0.105672 0.208002
outer loop
vertex -0.094629 0.008108 0.017747
vertex -0.094000 0.005231 0.022150
vertex -0.092793 0.015904 0.022371
endloop
endfacet
facet normal -0.767948 -0.593995 0.239636
outer loop
vertex -0.077295 -0.054004 0.021497
vertex -0.071118 -0.062018 0.021429
vertex -0.060151 -0.044781 0.099299
endloop
endfacet
facet normal -0.000007 -0.000004 -1.000000
outer loop
vertex -0.079882 -0.051492 0.000000
vertex -0.086628 -0.039197 0.000000
vertex -0.071852 -0.062242 0.000000
endloop
endfacet
facet normal -0.000001 -0.000000 1.000000
outer loop
vertex -0.064944 0.037495 0.099299
vertex -0.064943 -0.037495 0.099299
vertex -0.060151 -0.044781 0.099299
endloop
endfacet
facet normal 0.000003 -0.000000 1.000000
outer loop
vertex -0.068857 -0.029702 0.099299
vertex -0.064943 -0.037495 0.099299
vertex -0.064944 0.037495 0.099299
endloop
endfacet
facet normal -0.810686 -0.533196 0.241846
outer loop
vertex -0.077295 -0.054004 0.021497
vertex -0.060151 -0.044781 0.099299
vertex -0.064943 -0.037495 0.099299
endloop
endfacet
facet normal -0.000003 -0.000000 1.000000
outer loop
vertex -0.064944 0.037495 0.099299
vertex -0.071840 -0.021507 0.099299
vertex -0.068857 -0.029702 0.099299
endloop
endfacet
facet normal 0.000005 0.000000 1.000000
outer loop
vertex -0.074863 -0.004360 0.099299
vertex -0.064944 0.037495 0.099299
vertex -0.074863 0.004360 0.099299
endloop
endfacet
facet normal 0.000000 0.000000 1.000000
outer loop
vertex -0.073851 0.013022 0.099299
vertex -0.074863 0.004360 0.099299
vertex -0.064944 0.037495 0.099299
endloop
endfacet
facet normal -0.970410 0.000000 0.241464
outer loop
vertex -0.074863 -0.004360 0.099299
vertex -0.074863 0.004360 0.099299
vertex -0.094023 -0.005088 0.022301
endloop
endfacet
facet normal -0.970556 0.005628 0.240810
outer loop
vertex -0.074863 0.004360 0.099299
vertex -0.094000 0.005231 0.022150
vertex -0.094023 -0.005088 0.022301
endloop
endfacet
facet normal -0.963828 0.112656 0.241545
outer loop
vertex -0.073851 0.013022 0.099299
vertex -0.092793 0.015904 0.022371
vertex -0.074863 0.004360 0.099299
endloop
endfacet
facet normal -0.965031 0.104162 0.240551
outer loop
vertex -0.094000 0.005231 0.022150
vertex -0.074863 0.004360 0.099299
vertex -0.092793 0.015904 0.022371
endloop
endfacet
facet normal -0.866806 0.435327 0.243183
outer loop
vertex -0.084278 0.042120 0.022104
vertex -0.068857 0.029702 0.099299
vertex -0.064944 0.037495 0.099299
endloop
endfacet
facet normal -0.893493 0.379827 0.239587
outer loop
vertex -0.068857 0.029702 0.099299
vertex -0.084278 0.042120 0.022104
vertex -0.088497 0.032109 0.022240
endloop
endfacet
facet normal -0.000001 0.000000 1.000000
outer loop
vertex 0.054546 0.051461 0.099299
vertex 0.048203 0.057446 0.099299
vertex -0.064944 0.037495 0.099299
endloop
endfacet
facet normal 0.000000 0.000000 1.000000
outer loop
vertex 0.048203 0.057446 0.099299
vertex 0.041208 0.062653 0.099299
vertex -0.064944 0.037495 0.099299
endloop
endfacet
facet normal 0.000017 0.000014 -1.000000
outer loop
vertex 0.066551 0.067792 -0.000000
vertex 0.073691 0.060018 0.000000
vertex 0.081718 0.048606 -0.000000
endloop
endfacet
facet normal 0.817924 0.575306 -0.004848
outer loop
vertex 0.073691 0.060018 0.000000
vertex 0.075671 0.057350 0.017480
vertex 0.081718 0.048606 -0.000000
endloop
endfacet
facet normal 0.896356 0.443298 -0.005788
outer loop
vertex 0.086432 0.039302 0.017480
vertex 0.087977 0.035949 0.000000
vertex 0.081718 0.048606 -0.000000
endloop
endfacet
facet normal 0.818193 0.560669 0.127316
outer loop
vertex 0.077510 0.053710 0.021691
vertex 0.081380 0.048973 0.017685
vertex 0.075671 0.057350 0.017480
endloop
endfacet
facet normal 0.826315 0.563193 0.004114
outer loop
vertex 0.075671 0.057350 0.017480
vertex 0.081380 0.048973 0.017685
vertex 0.081718 0.048606 -0.000000
endloop
endfacet
facet normal 0.886375 0.462909 0.007343
outer loop
vertex 0.081718 0.048606 -0.000000
vertex 0.081380 0.048973 0.017685
vertex 0.086432 0.039302 0.017480
endloop
endfacet
facet normal 0.963708 0.112643 0.242029
outer loop
vertex 0.074863 0.004360 0.099299
vertex 0.092899 0.015285 0.022402
vertex 0.073851 0.013022 0.099299
endloop
endfacet
facet normal 0.944476 0.223845 0.240537
outer loop
vertex 0.073851 0.013022 0.099299
vertex 0.092899 0.015285 0.022402
vertex 0.071840 0.021507 0.099299
endloop
endfacet
facet normal -0.000000 -0.000000 1.000000
outer loop
vertex -0.064944 0.037495 0.099299
vertex 0.041208 -0.062653 0.099299
vertex 0.048203 -0.057446 0.099299
endloop
endfacet
facet normal 0.000000 -0.000000 1.000000
outer loop
vertex 0.033656 -0.067014 0.099299
vertex 0.041208 -0.062653 0.099299
vertex -0.064944 0.037495 0.099299
endloop
endfacet
facet normal 0.485084 -0.840188 0.242438
outer loop
vertex 0.033656 -0.067014 0.099299
vertex 0.046196 -0.082055 0.022081
vertex 0.041208 -0.062653 0.099299
endloop
endfacet
facet normal 0.810817 -0.533282 0.241218
outer loop
vertex 0.060151 -0.044781 0.099299
vertex 0.081188 -0.047729 0.022070
vertex 0.064944 -0.037495 0.099299
endloop
endfacet
facet normal 0.806915 -0.539535 0.240394
outer loop
vertex 0.075099 -0.057156 0.021350
vertex 0.081188 -0.047729 0.022070
vertex 0.060151 -0.044781 0.099299
endloop
endfacet
facet normal 0.000002 -0.000005 -1.000000
outer loop
vertex 0.061396 -0.072546 -0.000000
vertex 0.052961 -0.078866 0.000000
vertex 0.034318 -0.088584 0.000000
endloop
endfacet
facet normal 0.000017 -0.000032 -1.000000
outer loop
vertex 0.043902 -0.084292 0.000000
vertex 0.034318 -0.088584 0.000000
vertex 0.052961 -0.078866 0.000000
endloop
endfacet
facet normal 0.000000 0.000000 1.000000
outer loop
vertex 0.054546 0.051461 0.099299
vertex -0.064944 0.037495 0.099299
vertex 0.060151 0.044781 0.099299
endloop
endfacet
facet normal -0.000000 0.000000 1.000000
outer loop
vertex 0.064943 0.037495 0.099299
vertex 0.060151 0.044781 0.099299
vertex -0.064944 0.037495 0.099299
endloop
endfacet
facet normal 0.810522 0.533091 0.242626
outer loop
vertex 0.077510 0.053710 0.021691
vertex 0.060151 0.044781 0.099299
vertex 0.064943 0.037495 0.099299
endloop
endfacet
facet normal 0.866860 0.435356 0.242937
outer loop
vertex 0.064943 0.037495 0.099299
vertex 0.068857 0.029702 0.099299
vertex 0.084564 0.041568 0.021990
endloop
endfacet
facet normal 0.879398 0.456564 0.134940
outer loop
vertex 0.081380 0.048973 0.017685
vertex 0.084564 0.041568 0.021990
vertex 0.086432 0.039302 0.017480
endloop
endfacet
facet normal 0.837196 0.492206 0.238403
outer loop
vertex 0.064943 0.037495 0.099299
vertex 0.084564 0.041568 0.021990
vertex 0.077510 0.053710 0.021691
endloop
endfacet
facet normal 0.839547 0.493306 0.227620
outer loop
vertex 0.084564 0.041568 0.021990
vertex 0.081380 0.048973 0.017685
vertex 0.077510 0.053710 0.021691
endloop
endfacet
facet normal -0.000001 -0.000000 1.000000
outer loop
vertex 0.068857 -0.029702 0.099299
vertex 0.071840 -0.021507 0.099299
vertex -0.064944 0.037495 0.099299
endloop
endfacet
facet normal 0.000001 -0.000000 1.000000
outer loop
vertex -0.064944 0.037495 0.099299
vertex 0.071840 -0.021507 0.099299
vertex 0.073851 -0.013022 0.099299
endloop
endfacet
facet normal 0.912094 -0.331975 0.240575
outer loop
vertex 0.090500 -0.026040 0.022298
vertex 0.071840 -0.021507 0.099299
vertex 0.068857 -0.029702 0.099299
endloop
endfacet
facet normal 0.944129 -0.223765 0.241969
outer loop
vertex 0.073851 -0.013022 0.099299
vertex 0.071840 -0.021507 0.099299
vertex 0.090500 -0.026040 0.022298
endloop
endfacet
facet normal 0.947951 -0.208928 0.240288
outer loop
vertex 0.073851 -0.013022 0.099299
vertex 0.090500 -0.026040 0.022298
vertex 0.092867 -0.015483 0.022139
endloop
endfacet
facet normal -0.000010 0.000014 -1.000000
outer loop
vertex -0.052954 0.078921 0.000000
vertex -0.043909 0.084242 -0.000000
vertex -0.064079 0.070246 0.000000
endloop
endfacet
facet normal -0.000001 0.000014 -1.000000
outer loop
vertex -0.020872 0.092762 -0.000000
vertex -0.007003 0.094780 0.000000
vertex 0.003510 0.094934 -0.000000
endloop
endfacet
facet normal -0.014601 0.999890 -0.002751
outer loop
vertex 0.003510 0.094934 -0.000000
vertex -0.007003 0.094780 0.000000
vertex -0.003673 0.094877 0.017480
endloop
endfacet
facet normal -0.341264 0.921515 0.185334
outer loop
vertex -0.037160 0.086428 0.022400
vertex -0.026912 0.090287 0.022085
vertex -0.028017 0.090742 0.017788
endloop
endfacet
facet normal -0.294128 0.955718 -0.009604
outer loop
vertex -0.034333 0.088619 -0.000000
vertex -0.028017 0.090742 0.017788
vertex -0.020872 0.092762 -0.000000
endloop
endfacet
facet normal -0.419857 0.890641 0.174583
outer loop
vertex -0.037160 0.086428 0.022400
vertex -0.037546 0.087206 0.017504
vertex -0.043645 0.083424 0.022129
endloop
endfacet
facet normal -0.415719 0.909489 -0.002879
outer loop
vertex -0.043909 0.084242 -0.000000
vertex -0.037546 0.087206 0.017504
vertex -0.034333 0.088619 -0.000000
endloop
endfacet
facet normal -0.348161 0.937361 0.011773
outer loop
vertex -0.037546 0.087206 0.017504
vertex -0.028017 0.090742 0.017788
vertex -0.034333 0.088619 -0.000000
endloop
endfacet
facet normal -0.347133 0.921578 0.173761
outer loop
vertex -0.028017 0.090742 0.017788
vertex -0.037546 0.087206 0.017504
vertex -0.037160 0.086428 0.022400
endloop
endfacet
facet normal -0.237962 0.971163 0.014714
outer loop
vertex -0.028017 0.090742 0.017788
vertex -0.017646 0.093287 0.017518
vertex -0.020872 0.092762 -0.000000
endloop
endfacet
facet normal -0.212275 0.956948 0.197962
outer loop
vertex -0.013812 0.093114 0.022467
vertex -0.017646 0.093287 0.017518
vertex -0.026912 0.090287 0.022085
endloop
endfacet
facet normal -0.231282 0.959464 0.161050
outer loop
vertex -0.017646 0.093287 0.017518
vertex -0.028017 0.090742 0.017788
vertex -0.026912 0.090287 0.022085
endloop
endfacet
facet normal -0.945394 0.219424 0.241006
outer loop
vertex -0.073851 0.013022 0.099299
vertex -0.090604 0.025604 0.022127
vertex -0.092793 0.015904 0.022371
endloop
endfacet
facet normal -0.953622 0.220374 0.205037
outer loop
vertex -0.090604 0.025604 0.022127
vertex -0.092465 0.021787 0.017575
vertex -0.092793 0.015904 0.022371
endloop
endfacet
facet normal -0.913332 0.371161 0.167522
outer loop
vertex -0.089243 0.032403 0.017521
vertex -0.088497 0.032109 0.022240
vertex -0.086578 0.038963 0.017518
endloop
endfacet
facet normal -0.926452 0.376406 -0.002147
outer loop
vertex -0.090429 0.029384 0.000000
vertex -0.089243 0.032403 0.017521
vertex -0.086578 0.038963 0.017518
endloop
endfacet
facet normal -0.956787 0.290417 0.014724
outer loop
vertex -0.092465 0.021787 0.017575
vertex -0.089243 0.032403 0.017521
vertex -0.090429 0.029384 0.000000
endloop
endfacet
facet normal -0.938809 0.301141 0.167187
outer loop
vertex -0.088497 0.032109 0.022240
vertex -0.089243 0.032403 0.017521
vertex -0.090604 0.025604 0.022127
endloop
endfacet
facet normal -0.946529 0.287968 0.145455
outer loop
vertex -0.090604 0.025604 0.022127
vertex -0.089243 0.032403 0.017521
vertex -0.092465 0.021787 0.017575
endloop
endfacet
facet normal -0.994254 0.106947 -0.004614
outer loop
vertex -0.094629 0.008108 0.017747
vertex -0.093724 0.015759 0.000000
vertex -0.094853 0.005264 -0.000000
endloop
endfacet
facet normal -0.987534 0.156477 0.017081
outer loop
vertex -0.092465 0.021787 0.017575
vertex -0.093724 0.015759 0.000000
vertex -0.094629 0.008108 0.017747
endloop
endfacet
facet normal -0.000009 0.000002 -1.000000
outer loop
vertex -0.093724 0.015759 0.000000
vertex -0.090429 0.029384 0.000000
vertex -0.094853 0.005264 -0.000000
endloop
endfacet
facet normal -0.971927 0.235026 -0.010976
outer loop
vertex -0.090429 0.029384 0.000000
vertex -0.093724 0.015759 0.000000
vertex -0.092465 0.021787 0.017575
endloop
endfacet
facet normal 0.000004 0.000001 1.000000
outer loop
vertex -0.064944 0.037495 0.099299
vertex -0.041208 0.062653 0.099299
vertex -0.048203 0.057446 0.099299
endloop
endfacet
facet normal -0.886976 0.439296 0.142453
outer loop
vertex -0.084278 0.042120 0.022104
vertex -0.083451 0.045289 0.017480
vertex -0.086578 0.038963 0.017518
endloop
endfacet
facet normal -0.896393 0.443165 0.009141
outer loop
vertex -0.086578 0.038963 0.017518
vertex -0.083451 0.045289 0.017480
vertex -0.085065 0.042385 0.000000
endloop
endfacet
facet normal -0.867094 0.498137 -0.002697
outer loop
vertex -0.085065 0.042385 0.000000
vertex -0.083451 0.045289 0.017480
vertex -0.079832 0.051494 -0.000000
endloop
endfacet
facet normal -0.859657 0.510860 0.003358
outer loop
vertex -0.079832 0.051494 -0.000000
vertex -0.083451 0.045289 0.017480
vertex -0.079898 0.051266 0.017681
endloop
endfacet
facet normal -0.810553 0.559464 0.173218
outer loop
vertex -0.079898 0.051266 0.017681
vertex -0.079076 0.051089 0.022101
vertex -0.075247 0.056824 0.021497
endloop
endfacet
facet normal -0.810596 0.533138 0.242276
outer loop
vertex -0.060151 0.044781 0.099299
vertex -0.079076 0.051089 0.022101
vertex -0.064944 0.037495 0.099299
endloop
endfacet
facet normal -0.795365 0.556400 0.240443
outer loop
vertex -0.060151 0.044781 0.099299
vertex -0.075247 0.056824 0.021497
vertex -0.079076 0.051089 0.022101
endloop
endfacet
facet normal -0.839823 0.487158 0.239530
outer loop
vertex -0.084278 0.042120 0.022104
vertex -0.064944 0.037495 0.099299
vertex -0.079076 0.051089 0.022101
endloop
endfacet
facet normal -0.849933 0.493005 0.185903
outer loop
vertex -0.079076 0.051089 0.022101
vertex -0.083451 0.045289 0.017480
vertex -0.084278 0.042120 0.022104
endloop
endfacet
facet normal -0.848526 0.498377 0.177829
outer loop
vertex -0.083451 0.045289 0.017480
vertex -0.079076 0.051089 0.022101
vertex -0.079898 0.051266 0.017681
endloop
endfacet
facet normal -0.399632 -0.884669 0.240113
outer loop
vertex -0.034097 -0.087752 0.022154
vertex -0.033656 -0.067014 0.099299
vertex -0.044080 -0.083185 0.022366
endloop
endfacet
facet normal -0.705103 -0.709030 -0.010333
outer loop
vertex -0.061870 -0.072169 0.000000
vertex -0.065952 -0.068366 0.017622
vertex -0.071852 -0.062242 0.000000
endloop
endfacet
facet normal -0.166063 -0.972586 0.162789
outer loop
vertex -0.009982 -0.094462 0.017675
vertex -0.010725 -0.093575 0.022214
vertex -0.020682 -0.092661 0.017518
endloop
endfacet
facet normal -0.168524 -0.955749 0.241132
outer loop
vertex -0.017294 -0.072969 0.099299
vertex -0.010725 -0.093575 0.022214
vertex -0.008706 -0.074483 0.099299
endloop
endfacet
facet normal -0.056424 -0.968778 0.241423
outer loop
vertex -0.008706 -0.074483 0.099299
vertex -0.010725 -0.093575 0.022214
vertex 0.000000 -0.074990 0.099299
endloop
endfacet
facet normal -0.049679 -0.969347 0.240621
outer loop
vertex -0.010725 -0.093575 0.022214
vertex 0.000102 -0.094149 0.022140
vertex 0.000000 -0.074990 0.099299
endloop
endfacet
facet normal 0.015956 -0.999865 -0.003895
outer loop
vertex 0.008475 -0.094722 0.000000
vertex -0.000668 -0.094937 0.017755
vertex -0.004718 -0.094933 0.000000
endloop
endfacet
facet normal -0.051054 -0.998631 0.011390
outer loop
vertex -0.000668 -0.094937 0.017755
vertex -0.009982 -0.094462 0.017675
vertex -0.004718 -0.094933 0.000000
endloop
endfacet
facet normal -0.050695 -0.981363 0.185353
outer loop
vertex -0.010725 -0.093575 0.022214
vertex -0.000668 -0.094937 0.017755
vertex 0.000102 -0.094149 0.022140
endloop
endfacet
facet normal -0.051660 -0.981702 0.183282
outer loop
vertex -0.009982 -0.094462 0.017675
vertex -0.000668 -0.094937 0.017755
vertex -0.010725 -0.093575 0.022214
endloop
endfacet
facet normal -0.743144 -0.623569 0.242690
outer loop
vertex -0.071118 -0.062018 0.021429
vertex -0.054546 -0.051461 0.099299
vertex -0.060151 -0.044781 0.099299
endloop
endfacet
facet normal 0.000000 -0.000000 1.000000
outer loop
vertex -0.060151 -0.044781 0.099299
vertex -0.054546 -0.051461 0.099299
vertex -0.064944 0.037495 0.099299
endloop
endfacet
facet normal -0.000004 -0.000000 1.000000
outer loop
vertex -0.054546 -0.051461 0.099299
vertex -0.048203 -0.057446 0.099299
vertex -0.064944 0.037495 0.099299
endloop
endfacet
facet normal -0.778482 -0.601594 0.179026
outer loop
vertex -0.071118 -0.062018 0.021429
vertex -0.077295 -0.054004 0.021497
vertex -0.073533 -0.060073 0.017463
endloop
endfacet
facet normal -0.738140 -0.674528 0.012719
outer loop
vertex -0.065952 -0.068366 0.017622
vertex -0.073533 -0.060073 0.017463
vertex -0.071852 -0.062242 0.000000
endloop
endfacet
facet normal -0.733964 -0.668679 0.119014
outer loop
vertex -0.071118 -0.062018 0.021429
vertex -0.073533 -0.060073 0.017463
vertex -0.065952 -0.068366 0.017622
endloop
endfacet
facet normal -0.786379 -0.595846 0.163022
outer loop
vertex -0.073533 -0.060073 0.017463
vertex -0.077295 -0.054004 0.021497
vertex -0.077734 -0.054501 0.017567
endloop
endfacet
facet normal -0.801148 -0.598449 -0.004519
outer loop
vertex -0.077734 -0.054501 0.017567
vertex -0.079882 -0.051492 0.000000
vertex -0.071852 -0.062242 0.000000
endloop
endfacet
facet normal -0.798542 -0.601935 -0.002110
outer loop
vertex -0.073533 -0.060073 0.017463
vertex -0.077734 -0.054501 0.017567
vertex -0.071852 -0.062242 0.000000
endloop
endfacet
facet normal -0.000007 -0.000000 1.000000
outer loop
vertex -0.074863 -0.004360 0.099299
vertex -0.073851 -0.013022 0.099299
vertex -0.064944 0.037495 0.099299
endloop
endfacet
facet normal 0.000000 -0.000000 1.000000
outer loop
vertex -0.073851 -0.013022 0.099299
vertex -0.071840 -0.021507 0.099299
vertex -0.064944 0.037495 0.099299
endloop
endfacet
facet normal -0.940102 -0.340859 -0.004738
outer loop
vertex -0.086628 -0.039197 0.000000
vertex -0.090214 -0.029552 0.017681
vertex -0.091422 -0.025974 0.000000
endloop
endfacet
facet normal 0.345623 0.919437 0.187565
outer loop
vertex 0.030853 0.089783 0.017567
vertex 0.027698 0.090046 0.022091
vertex 0.037253 0.086404 0.022336
endloop
endfacet
facet normal 0.000001 0.000001 -1.000000
outer loop
vertex 0.081718 0.048606 -0.000000
vertex 0.014534 0.093940 -0.000000
vertex 0.066551 0.067792 -0.000000
endloop
endfacet
facet normal -0.000001 0.000010 -1.000000
outer loop
vertex -0.020872 0.092762 -0.000000
vertex 0.003510 0.094934 -0.000000
vertex 0.014534 0.093940 -0.000000
endloop
endfacet
facet normal 0.089753 0.995957 -0.003676
outer loop
vertex 0.010453 0.094373 0.017460
vertex 0.014534 0.093940 -0.000000
vertex 0.003510 0.094934 -0.000000
endloop
endfacet
facet normal 0.149735 0.988670 0.010526
outer loop
vertex 0.010453 0.094373 0.017460
vertex 0.017430 0.093313 0.017699
vertex 0.014534 0.093940 -0.000000
endloop
endfacet
facet normal -0.000001 0.000002 -1.000000
outer loop
vertex -0.020872 0.092762 -0.000000
vertex 0.014534 0.093940 -0.000000
vertex -0.034333 0.088619 -0.000000
endloop
endfacet
facet normal 0.000000 0.000000 -1.000000
outer loop
vertex 0.093823 0.015273 -0.000000
vertex 0.014534 0.093940 -0.000000
vertex 0.081718 0.048606 -0.000000
endloop
endfacet
facet normal -0.000000 0.000001 -1.000000
outer loop
vertex -0.043909 0.084242 -0.000000
vertex -0.034333 0.088619 -0.000000
vertex 0.014534 0.093940 -0.000000
endloop
endfacet
facet normal -0.000000 0.000000 -1.000000
outer loop
vertex -0.043909 0.084242 -0.000000
vertex 0.014534 0.093940 -0.000000
vertex -0.079832 0.051494 -0.000000
endloop
endfacet
facet normal 0.000000 0.000000 -1.000000
outer loop
vertex 0.093823 0.015273 -0.000000
vertex 0.095023 0.001734 -0.000000
vertex 0.014534 0.093940 -0.000000
endloop
endfacet
facet normal -0.000000 0.000000 -1.000000
outer loop
vertex -0.079832 0.051494 -0.000000
vertex 0.014534 0.093940 -0.000000
vertex -0.094853 0.005264 -0.000000
endloop
endfacet
facet normal -0.000000 -0.000000 -1.000000
outer loop
vertex -0.093688 -0.015727 0.000000
vertex -0.094853 0.005264 -0.000000
vertex 0.014534 0.093940 -0.000000
endloop
endfacet
facet normal -0.000000 -0.000000 -1.000000
outer loop
vertex -0.052961 -0.078867 0.000000
vertex 0.014534 0.093940 -0.000000
vertex 0.095023 0.001734 -0.000000
endloop
endfacet
facet normal -0.000000 -0.000000 -1.000000
outer loop
vertex -0.093688 -0.015727 0.000000
vertex 0.014534 0.093940 -0.000000
vertex -0.052961 -0.078867 0.000000
endloop
endfacet
facet normal 0.287493 0.946678 0.145428
outer loop
vertex 0.030853 0.089783 0.017567
vertex 0.024230 0.091804 0.017503
vertex 0.027698 0.090046 0.022091
endloop
endfacet
facet normal 0.000002 0.000004 -1.000000
outer loop
vertex 0.014534 0.093940 -0.000000
vertex 0.047044 0.082630 0.000000
vertex 0.066551 0.067792 -0.000000
endloop
endfacet
facet normal 0.682047 0.731265 0.007927
outer loop
vertex 0.061204 0.072589 0.017481
vertex 0.068570 0.065716 0.017734
vertex 0.066551 0.067792 -0.000000
endloop
endfacet
facet normal 0.736484 0.676439 -0.004689
outer loop
vertex 0.068570 0.065716 0.017734
vertex 0.073691 0.060018 0.000000
vertex 0.066551 0.067792 -0.000000
endloop
endfacet
facet normal 0.762529 0.646836 0.012344
outer loop
vertex 0.073691 0.060018 0.000000
vertex 0.068570 0.065716 0.017734
vertex 0.075671 0.057350 0.017480
endloop
endfacet
facet normal 0.553953 0.797346 0.239532
outer loop
vertex 0.041208 0.062653 0.099299
vertex 0.058500 0.074053 0.021361
vertex 0.049638 0.080169 0.021497
endloop
endfacet
facet normal 0.579353 0.778208 0.242368
outer loop
vertex 0.048203 0.057446 0.099299
vertex 0.058500 0.074053 0.021361
vertex 0.041208 0.062653 0.099299
endloop
endfacet
facet normal 0.000011 0.000004 -1.000000
outer loop
vertex 0.081718 0.048606 -0.000000
vertex 0.091372 0.025998 -0.000000
vertex 0.093823 0.015273 -0.000000
endloop
endfacet
facet normal 0.000018 0.000007 -1.000000
outer loop
vertex 0.087977 0.035949 0.000000
vertex 0.091372 0.025998 -0.000000
vertex 0.081718 0.048606 -0.000000
endloop
endfacet
facet normal 0.996050 0.088342 -0.008963
outer loop
vertex 0.093823 0.015273 -0.000000
vertex 0.094519 0.009224 0.017797
vertex 0.095023 0.001734 -0.000000
endloop
endfacet
facet normal 0.689992 -0.723809 -0.003416
outer loop
vertex 0.061396 -0.072546 -0.000000
vertex 0.069010 -0.065287 0.000000
vertex 0.064056 -0.070092 0.017440
endloop
endfacet
facet normal 0.940492 -0.339687 0.009394
outer loop
vertex 0.087936 -0.035823 0.017440
vertex 0.089229 -0.032726 0.000000
vertex 0.090355 -0.029118 0.017681
endloop
endfacet
facet normal 0.919890 -0.339002 0.197181
outer loop
vertex 0.090500 -0.026040 0.022298
vertex 0.087936 -0.035823 0.017440
vertex 0.090355 -0.029118 0.017681
endloop
endfacet
facet normal 0.000020 -0.000007 -1.000000
outer loop
vertex 0.092271 -0.022603 0.000000
vertex 0.089229 -0.032726 0.000000
vertex 0.083466 -0.045539 -0.000000
endloop
endfacet
facet normal 0.912000 -0.410157 -0.005232
outer loop
vertex 0.087936 -0.035823 0.017440
vertex 0.083466 -0.045539 -0.000000
vertex 0.089229 -0.032726 0.000000
endloop
endfacet
facet normal 0.905368 -0.424603 0.004514
outer loop
vertex 0.087936 -0.035823 0.017440
vertex 0.083637 -0.044986 0.017784
vertex 0.083466 -0.045539 -0.000000
endloop
endfacet
facet normal 0.000013 -0.000010 -1.000000
outer loop
vertex 0.069010 -0.065287 0.000000
vertex 0.083466 -0.045539 -0.000000
vertex 0.075833 -0.057286 0.000000
endloop
endfacet
facet normal 0.000005 -0.000004 -1.000000
outer loop
vertex 0.061396 -0.072546 -0.000000
vertex 0.083466 -0.045539 -0.000000
vertex 0.069010 -0.065287 0.000000
endloop
endfacet
facet normal 0.000001 -0.000001 -1.000000
outer loop
vertex 0.095023 0.001734 -0.000000
vertex 0.083466 -0.045539 -0.000000
vertex 0.061396 -0.072546 -0.000000
endloop
endfacet
facet normal 0.000004 -0.000001 -1.000000
outer loop
vertex 0.092271 -0.022603 0.000000
vertex 0.083466 -0.045539 -0.000000
vertex 0.095023 0.001734 -0.000000
endloop
endfacet
facet normal 0.818149 -0.542899 0.189454
outer loop
vertex 0.081188 -0.047729 0.022070
vertex 0.075099 -0.057156 0.021350
vertex 0.077927 -0.054245 0.017480
endloop
endfacet
facet normal 0.839979 -0.522783 0.145374
outer loop
vertex 0.081188 -0.047729 0.022070
vertex 0.077927 -0.054245 0.017480
vertex 0.083637 -0.044986 0.017784
endloop
endfacet
facet normal 0.838512 -0.544854 -0.005655
outer loop
vertex 0.083466 -0.045539 -0.000000
vertex 0.077927 -0.054245 0.017480
vertex 0.075833 -0.057286 0.000000
endloop
endfacet
facet normal 0.851012 -0.525083 0.008155
outer loop
vertex 0.077927 -0.054245 0.017480
vertex 0.083466 -0.045539 -0.000000
vertex 0.083637 -0.044986 0.017784
endloop
endfacet
facet normal 0.513839 -0.857873 -0.004822
outer loop
vertex 0.052961 -0.078866 0.000000
vertex 0.050512 -0.080433 0.017713
vertex 0.043902 -0.084292 0.000000
endloop
endfacet
facet normal 0.408648 -0.912688 -0.002676
outer loop
vertex 0.043902 -0.084292 0.000000
vertex 0.040893 -0.085691 0.017480
vertex 0.034318 -0.088584 0.000000
endloop
endfacet
facet normal 0.385087 -0.922847 0.007866
outer loop
vertex 0.034318 -0.088584 0.000000
vertex 0.040893 -0.085691 0.017480
vertex 0.031623 -0.089557 0.017746
endloop
endfacet
facet normal 0.479383 -0.877519 0.012317
outer loop
vertex 0.050512 -0.080433 0.017713
vertex 0.040893 -0.085691 0.017480
vertex 0.043902 -0.084292 0.000000
endloop
endfacet
facet normal 0.384640 -0.912934 0.136392
outer loop
vertex 0.031623 -0.089557 0.017746
vertex 0.040893 -0.085691 0.017480
vertex 0.037097 -0.086575 0.022271
endloop
endfacet
facet normal 0.440151 -0.878285 0.186768
outer loop
vertex 0.037097 -0.086575 0.022271
vertex 0.040893 -0.085691 0.017480
vertex 0.046196 -0.082055 0.022081
endloop
endfacet
facet normal 0.472025 -0.869851 0.143360
outer loop
vertex 0.040893 -0.085691 0.017480
vertex 0.050512 -0.080433 0.017713
vertex 0.046196 -0.082055 0.022081
endloop
endfacet
facet normal 0.000021 -0.000003 -1.000000
outer loop
vertex 0.095023 0.001734 -0.000000
vertex 0.094341 -0.011651 0.000000
vertex 0.092271 -0.022603 0.000000
endloop
endfacet
facet normal 0.956898 -0.254599 0.139735
outer loop
vertex 0.090500 -0.026040 0.022298
vertex 0.090355 -0.029118 0.017681
vertex 0.093108 -0.018725 0.017765
endloop
endfacet
facet normal 0.954889 -0.210956 0.209006
outer loop
vertex 0.092867 -0.015483 0.022139
vertex 0.090500 -0.026040 0.022298
vertex 0.093108 -0.018725 0.017765
endloop
endfacet
facet normal 0.966588 -0.256128 0.010332
outer loop
vertex 0.092271 -0.022603 0.000000
vertex 0.093108 -0.018725 0.017765
vertex 0.090355 -0.029118 0.017681
endloop
endfacet
facet normal 0.982571 -0.185795 -0.005779
outer loop
vertex 0.094341 -0.011651 0.000000
vertex 0.093108 -0.018725 0.017765
vertex 0.092271 -0.022603 0.000000
endloop
endfacet
facet normal -0.507035 0.861921 -0.002631
outer loop
vertex -0.052954 0.078921 0.000000
vertex -0.050123 0.080640 0.017480
vertex -0.043909 0.084242 -0.000000
endloop
endfacet
facet normal -0.074125 0.977976 0.195109
outer loop
vertex -0.003673 0.094877 0.017480
vertex -0.010670 0.094347 0.017480
vertex -0.013812 0.093114 0.022467
endloop
endfacet
facet normal -0.147724 0.977789 0.148679
outer loop
vertex -0.010670 0.094347 0.017480
vertex -0.017646 0.093287 0.017518
vertex -0.013812 0.093114 0.022467
endloop
endfacet
facet normal -0.075574 0.997101 0.008883
outer loop
vertex -0.007003 0.094780 0.000000
vertex -0.010670 0.094347 0.017480
vertex -0.003673 0.094877 0.017480
endloop
endfacet
facet normal -0.144006 0.989561 -0.005656
outer loop
vertex -0.010670 0.094347 0.017480
vertex -0.007003 0.094780 0.000000
vertex -0.020872 0.092762 -0.000000
endloop
endfacet
facet normal -0.150179 0.988657 -0.001972
outer loop
vertex -0.017646 0.093287 0.017518
vertex -0.010670 0.094347 0.017480
vertex -0.020872 0.092762 -0.000000
endloop
endfacet
facet normal -0.944251 0.223792 0.241470
outer loop
vertex -0.090604 0.025604 0.022127
vertex -0.073851 0.013022 0.099299
vertex -0.071840 0.021507 0.099299
endloop
endfacet
facet normal 0.000000 0.000001 1.000000
outer loop
vertex -0.073851 0.013022 0.099299
vertex -0.064944 0.037495 0.099299
vertex -0.071840 0.021507 0.099299
endloop
endfacet
facet normal 0.000000 0.000003 1.000000
outer loop
vertex -0.068857 0.029702 0.099299
vertex -0.071840 0.021507 0.099299
vertex -0.064944 0.037495 0.099299
endloop
endfacet
facet normal -0.911597 0.331793 0.242700
outer loop
vertex -0.071840 0.021507 0.099299
vertex -0.068857 0.029702 0.099299
vertex -0.088497 0.032109 0.022240
endloop
endfacet
facet normal -0.924646 0.295281 0.240498
outer loop
vertex -0.090604 0.025604 0.022127
vertex -0.071840 0.021507 0.099299
vertex -0.088497 0.032109 0.022240
endloop
endfacet
facet normal -0.183671 -0.961968 0.202192
outer loop
vertex -0.010725 -0.093575 0.022214
vertex -0.024390 -0.090941 0.022335
vertex -0.020682 -0.092661 0.017518
endloop
endfacet
facet normal -0.181755 -0.953740 0.239467
outer loop
vertex -0.010725 -0.093575 0.022214
vertex -0.017294 -0.072969 0.099299
vertex -0.024390 -0.090941 0.022335
endloop
endfacet
facet normal -0.402983 -0.890631 0.210669
outer loop
vertex -0.037159 -0.087399 0.017790
vertex -0.034097 -0.087752 0.022154
vertex -0.044080 -0.083185 0.022366
endloop
endfacet
facet normal -0.403913 -0.914790 -0.003613
outer loop
vertex -0.034317 -0.088584 0.000000
vertex -0.037159 -0.087399 0.017790
vertex -0.043420 -0.084565 0.000000
endloop
endfacet
facet normal -0.485095 -0.840209 0.242347
outer loop
vertex -0.033656 -0.067014 0.099299
vertex -0.041208 -0.062653 0.099299
vertex -0.044080 -0.083185 0.022366
endloop
endfacet
facet normal 0.000000 -0.000000 1.000000
outer loop
vertex -0.048203 -0.057446 0.099299
vertex -0.041208 -0.062653 0.099299
vertex -0.064944 0.037495 0.099299
endloop
endfacet
facet normal 0.000003 -0.000000 1.000000
outer loop
vertex -0.064944 0.037495 0.099299
vertex -0.041208 -0.062653 0.099299
vertex -0.033656 -0.067014 0.099299
endloop
endfacet
facet normal 0.000002 -0.000000 1.000000
outer loop
vertex -0.064944 0.037495 0.099299
vertex -0.025648 -0.070468 0.099299
vertex -0.017294 -0.072969 0.099299
endloop
endfacet
facet normal 0.000000 -0.000000 1.000000
outer loop
vertex -0.033656 -0.067014 0.099299
vertex -0.025648 -0.070468 0.099299
vertex -0.064944 0.037495 0.099299
endloop
endfacet
facet normal -0.384335 -0.890986 0.241724
outer loop
vertex -0.025648 -0.070468 0.099299
vertex -0.033656 -0.067014 0.099299
vertex -0.034097 -0.087752 0.022154
endloop
endfacet
facet normal -0.278229 -0.929355 0.242668
outer loop
vertex -0.024390 -0.090941 0.022335
vertex -0.017294 -0.072969 0.099299
vertex -0.025648 -0.070468 0.099299
endloop
endfacet
facet normal -0.306969 -0.920970 0.239968
outer loop
vertex -0.024390 -0.090941 0.022335
vertex -0.025648 -0.070468 0.099299
vertex -0.034097 -0.087752 0.022154
endloop
endfacet
facet normal -0.600908 -0.799311 -0.003496
outer loop
vertex -0.052961 -0.078867 0.000000
vertex -0.058444 -0.074821 0.017518
vertex -0.061870 -0.072169 0.000000
endloop
endfacet
facet normal -0.651775 -0.758307 0.012658
outer loop
vertex -0.065952 -0.068366 0.017622
vertex -0.061870 -0.072169 0.000000
vertex -0.058444 -0.074821 0.017518
endloop
endfacet
facet normal 0.107824 -0.964720 0.240184
outer loop
vertex 0.007063 -0.093828 0.022338
vertex 0.014017 -0.093102 0.022131
vertex 0.008706 -0.074483 0.099299
endloop
endfacet
facet normal 0.056413 -0.968572 0.242250
outer loop
vertex 0.000000 -0.074990 0.099299
vertex 0.007063 -0.093828 0.022338
vertex 0.008706 -0.074483 0.099299
endloop
endfacet
facet normal 0.037886 -0.969821 0.240855
outer loop
vertex 0.000102 -0.094149 0.022140
vertex 0.007063 -0.093828 0.022338
vertex 0.000000 -0.074990 0.099299
endloop
endfacet
facet normal 0.189602 -0.951996 0.240323
outer loop
vertex 0.023690 -0.091131 0.022308
vertex 0.017294 -0.072969 0.099299
vertex 0.014017 -0.093102 0.022131
endloop
endfacet
facet normal 0.278253 -0.929428 0.242363
outer loop
vertex 0.017294 -0.072969 0.099299
vertex 0.023690 -0.091131 0.022308
vertex 0.025648 -0.070468 0.099299
endloop
endfacet
facet normal 0.313045 -0.919241 0.238744
outer loop
vertex 0.037097 -0.086575 0.022271
vertex 0.025648 -0.070468 0.099299
vertex 0.023690 -0.091131 0.022308
endloop
endfacet
facet normal 0.313862 -0.921733 0.227812
outer loop
vertex 0.031623 -0.089557 0.017746
vertex 0.037097 -0.086575 0.022271
vertex 0.023690 -0.091131 0.022308
endloop
endfacet
facet normal 0.311148 -0.950349 -0.004865
outer loop
vertex 0.031623 -0.089557 0.017746
vertex 0.023737 -0.092048 0.000000
vertex 0.034318 -0.088584 0.000000
endloop
endfacet
facet normal 0.172592 -0.984952 -0.009021
outer loop
vertex 0.008475 -0.094722 0.000000
vertex 0.023737 -0.092048 0.000000
vertex 0.014148 -0.093888 0.017480
endloop
endfacet
facet normal 0.000005 -0.000054 -1.000000
outer loop
vertex 0.023737 -0.092048 0.000000
vertex 0.008475 -0.094722 0.000000
vertex -0.004718 -0.094933 0.000000
endloop
endfacet
facet normal 0.000001 -0.000002 -1.000000
outer loop
vertex 0.061396 -0.072546 -0.000000
vertex 0.034318 -0.088584 0.000000
vertex 0.023737 -0.092048 0.000000
endloop
endfacet
facet normal -0.000000 -0.000000 -1.000000
outer loop
vertex -0.004718 -0.094933 0.000000
vertex -0.013994 -0.093962 0.000000
vertex 0.023737 -0.092048 0.000000
endloop
endfacet
facet normal -0.000000 -0.000000 -1.000000
outer loop
vertex -0.034317 -0.088584 0.000000
vertex 0.061396 -0.072546 -0.000000
vertex 0.023737 -0.092048 0.000000
endloop
endfacet
facet normal -0.000000 -0.000000 -1.000000
outer loop
vertex -0.034317 -0.088584 0.000000
vertex 0.023737 -0.092048 0.000000
vertex -0.013994 -0.093962 0.000000
endloop
endfacet
facet normal 0.110655 -0.993792 0.011502
outer loop
vertex 0.014148 -0.093888 0.017480
vertex 0.006558 -0.094732 0.017615
vertex 0.008475 -0.094722 0.000000
endloop
endfacet
facet normal 0.028469 -0.999591 0.002554
outer loop
vertex 0.006558 -0.094732 0.017615
vertex -0.000668 -0.094937 0.017755
vertex 0.008475 -0.094722 0.000000
endloop
endfacet
facet normal 0.111841 -0.979299 0.168718
outer loop
vertex 0.014148 -0.093888 0.017480
vertex 0.014017 -0.093102 0.022131
vertex 0.006558 -0.094732 0.017615
endloop
endfacet
facet normal 0.107350 -0.978544 0.175860
outer loop
vertex 0.007063 -0.093828 0.022338
vertex 0.006558 -0.094732 0.017615
vertex 0.014017 -0.093102 0.022131
endloop
endfacet
facet normal 0.031297 -0.984680 0.171543
outer loop
vertex -0.000668 -0.094937 0.017755
vertex 0.006558 -0.094732 0.017615
vertex 0.000102 -0.094149 0.022140
endloop
endfacet
facet normal 0.040081 -0.982156 0.183748
outer loop
vertex 0.007063 -0.093828 0.022338
vertex 0.000102 -0.094149 0.022140
vertex 0.006558 -0.094732 0.017615
endloop
endfacet
facet normal -0.932438 -0.361243 0.007935
outer loop
vertex -0.090214 -0.029552 0.017681
vertex -0.086628 -0.039197 0.000000
vertex -0.086279 -0.039708 0.017698
endloop
endfacet
facet normal -0.912183 -0.332007 0.240194
outer loop
vertex -0.071840 -0.021507 0.099299
vertex -0.085841 -0.038681 0.022390
vertex -0.068857 -0.029702 0.099299
endloop
endfacet
facet normal -0.919930 -0.356136 0.164000
outer loop
vertex -0.086279 -0.039708 0.017698
vertex -0.085841 -0.038681 0.022390
vertex -0.090214 -0.029552 0.017681
endloop
endfacet
facet normal -0.867006 -0.435426 0.242291
outer loop
vertex -0.085841 -0.038681 0.022390
vertex -0.064943 -0.037495 0.099299
vertex -0.068857 -0.029702 0.099299
endloop
endfacet
facet normal -0.987756 -0.071649 0.138576
outer loop
vertex -0.094023 -0.005088 0.022301
vertex -0.094929 -0.001919 0.017480
vertex -0.094093 -0.012919 0.017748
endloop
endfacet
facet normal -0.997074 -0.075431 0.012407
outer loop
vertex -0.094895 -0.005241 0.000000
vertex -0.094093 -0.012919 0.017748
vertex -0.094929 -0.001919 0.017480
endloop
endfacet
facet normal -0.993429 -0.114355 -0.004597
outer loop
vertex -0.093688 -0.015727 0.000000
vertex -0.094093 -0.012919 0.017748
vertex -0.094895 -0.005241 0.000000
endloop
endfacet
facet normal -0.971641 -0.112231 0.208131
outer loop
vertex -0.094093 -0.012919 0.017748
vertex -0.092833 -0.015684 0.022139
vertex -0.094023 -0.005088 0.022301
endloop
endfacet
facet normal -0.964069 -0.111882 0.240944
outer loop
vertex -0.074863 -0.004360 0.099299
vertex -0.094023 -0.005088 0.022301
vertex -0.092833 -0.015684 0.022139
endloop
endfacet
facet normal -0.963954 -0.112672 0.241033
outer loop
vertex -0.073851 -0.013022 0.099299
vertex -0.074863 -0.004360 0.099299
vertex -0.092833 -0.015684 0.022139
endloop
endfacet
facet normal 0.000269 0.999994 0.003358
outer loop
vertex -0.003673 0.094877 0.017480
vertex 0.003280 0.094875 0.017681
vertex 0.003510 0.094934 -0.000000
endloop
endfacet
facet normal 0.069932 0.997543 0.004259
outer loop
vertex 0.003510 0.094934 -0.000000
vertex 0.003280 0.094875 0.017681
vertex 0.010453 0.094373 0.017460
endloop
endfacet
facet normal -0.003877 0.989169 0.146730
outer loop
vertex 0.000341 0.094175 0.022320
vertex 0.003280 0.094875 0.017681
vertex -0.003673 0.094877 0.017480
endloop
endfacet
facet normal 0.074441 0.978041 0.194667
outer loop
vertex 0.010453 0.094373 0.017460
vertex 0.003280 0.094875 0.017681
vertex 0.000341 0.094175 0.022320
endloop
endfacet
facet normal 0.663052 0.748569 -0.002631
outer loop
vertex 0.061204 0.072589 0.017481
vertex 0.066551 0.067792 -0.000000
vertex 0.058695 0.074750 0.000000
endloop
endfacet
facet normal 0.000010 0.000014 -1.000000
outer loop
vertex 0.047044 0.082630 0.000000
vertex 0.058695 0.074750 0.000000
vertex 0.066551 0.067792 -0.000000
endloop
endfacet
facet normal 0.771213 0.607961 0.188716
outer loop
vertex 0.075671 0.057350 0.017480
vertex 0.070845 0.062226 0.021497
vertex 0.077510 0.053710 0.021691
endloop
endfacet
facet normal 0.757462 0.638827 0.134727
outer loop
vertex 0.068570 0.065716 0.017734
vertex 0.070845 0.062226 0.021497
vertex 0.075671 0.057350 0.017480
endloop
endfacet
facet normal 0.761852 0.601791 0.239644
outer loop
vertex 0.077510 0.053710 0.021691
vertex 0.070845 0.062226 0.021497
vertex 0.060151 0.044781 0.099299
endloop
endfacet
facet normal 0.743275 0.623682 0.241999
outer loop
vertex 0.060151 0.044781 0.099299
vertex 0.070845 0.062226 0.021497
vertex 0.054546 0.051461 0.099299
endloop
endfacet
facet normal 0.672209 0.725814 0.146043
outer loop
vertex 0.066056 0.067288 0.021497
vertex 0.068570 0.065716 0.017734
vertex 0.061204 0.072589 0.017481
endloop
endfacet
facet normal 0.654508 0.734566 0.178974
outer loop
vertex 0.058500 0.074053 0.021361
vertex 0.066056 0.067288 0.021497
vertex 0.061204 0.072589 0.017481
endloop
endfacet
facet normal 0.705196 0.667145 0.240035
outer loop
vertex 0.070845 0.062226 0.021497
vertex 0.066056 0.067288 0.021497
vertex 0.054546 0.051461 0.099299
endloop
endfacet
facet normal 0.712546 0.674102 0.194589
outer loop
vertex 0.066056 0.067288 0.021497
vertex 0.070845 0.062226 0.021497
vertex 0.068570 0.065716 0.017734
endloop
endfacet
facet normal 0.665833 0.705742 0.242063
outer loop
vertex 0.048203 0.057446 0.099299
vertex 0.054546 0.051461 0.099299
vertex 0.066056 0.067288 0.021497
endloop
endfacet
facet normal 0.645201 0.725399 0.239816
outer loop
vertex 0.058500 0.074053 0.021361
vertex 0.048203 0.057446 0.099299
vertex 0.066056 0.067288 0.021497
endloop
endfacet
facet normal 0.965587 0.098943 0.240523
outer loop
vertex 0.092899 0.015285 0.022402
vertex 0.074863 0.004360 0.099299
vertex 0.094007 0.005067 0.022157
endloop
endfacet
facet normal 0.972509 0.100427 0.210098
outer loop
vertex 0.094007 0.005067 0.022157
vertex 0.094519 0.009224 0.017797
vertex 0.092899 0.015285 0.022402
endloop
endfacet
facet normal 0.910222 -0.337643 0.239779
outer loop
vertex 0.068857 -0.029702 0.099299
vertex 0.085562 -0.039322 0.022342
vertex 0.090500 -0.026040 0.022298
endloop
endfacet
facet normal 0.918282 -0.340767 0.201584
outer loop
vertex 0.087936 -0.035823 0.017440
vertex 0.090500 -0.026040 0.022298
vertex 0.085562 -0.039322 0.022342
endloop
endfacet
facet normal 0.898627 -0.416427 0.138051
outer loop
vertex 0.087936 -0.035823 0.017440
vertex 0.085562 -0.039322 0.022342
vertex 0.083637 -0.044986 0.017784
endloop
endfacet
facet normal 0.866096 -0.457098 0.202336
outer loop
vertex 0.085562 -0.039322 0.022342
vertex 0.081188 -0.047729 0.022070
vertex 0.083637 -0.044986 0.017784
endloop
endfacet
facet normal 0.866936 -0.435392 0.242603
outer loop
vertex 0.064944 -0.037495 0.099299
vertex 0.085562 -0.039322 0.022342
vertex 0.068857 -0.029702 0.099299
endloop
endfacet
facet normal 0.857868 -0.454056 0.240616
outer loop
vertex 0.081188 -0.047729 0.022070
vertex 0.085562 -0.039322 0.022342
vertex 0.064944 -0.037495 0.099299
endloop
endfacet
facet normal 0.736909 -0.631778 0.240461
outer loop
vertex 0.068497 -0.064801 0.021497
vertex 0.075099 -0.057156 0.021350
vertex 0.054546 -0.051461 0.099299
endloop
endfacet
facet normal 0.760884 -0.648882 -0.002752
outer loop
vertex 0.069010 -0.065287 0.000000
vertex 0.075833 -0.057286 0.000000
vertex 0.073708 -0.059852 0.017480
endloop
endfacet
facet normal 0.799025 -0.601232 0.008881
outer loop
vertex 0.077927 -0.054245 0.017480
vertex 0.073708 -0.059852 0.017480
vertex 0.075833 -0.057286 0.000000
endloop
endfacet
facet normal 0.792227 -0.596115 0.130476
outer loop
vertex 0.077927 -0.054245 0.017480
vertex 0.075099 -0.057156 0.021350
vertex 0.073708 -0.059852 0.017480
endloop
endfacet
facet normal 0.746387 -0.641168 0.178357
outer loop
vertex 0.068497 -0.064801 0.021497
vertex 0.073708 -0.059852 0.017480
vertex 0.075099 -0.057156 0.021350
endloop
endfacet
facet normal 0.676660 -0.711951 0.187770
outer loop
vertex 0.068497 -0.064801 0.021497
vertex 0.060521 -0.072396 0.021442
vertex 0.064056 -0.070092 0.017440
endloop
endfacet
facet normal 0.579532 -0.778447 0.241170
outer loop
vertex 0.041208 -0.062653 0.099299
vertex 0.060521 -0.072396 0.021442
vertex 0.048203 -0.057446 0.099299
endloop
endfacet
facet normal 0.666027 -0.705945 0.240934
outer loop
vertex 0.048203 -0.057446 0.099299
vertex 0.060521 -0.072396 0.021442
vertex 0.054546 -0.051461 0.099299
endloop
endfacet
facet normal 0.668488 -0.703753 0.240533
outer loop
vertex 0.068497 -0.064801 0.021497
vertex 0.054546 -0.051461 0.099299
vertex 0.060521 -0.072396 0.021442
endloop
endfacet
facet normal -0.429766 0.902934 0.003336
outer loop
vertex -0.043948 0.084159 0.017599
vertex -0.037546 0.087206 0.017504
vertex -0.043909 0.084242 -0.000000
endloop
endfacet
facet normal -0.495117 0.868821 0.003029
outer loop
vertex -0.050123 0.080640 0.017480
vertex -0.043948 0.084159 0.017599
vertex -0.043909 0.084242 -0.000000
endloop
endfacet
facet normal -0.421258 0.890380 0.172526
outer loop
vertex -0.037546 0.087206 0.017504
vertex -0.043948 0.084159 0.017599
vertex -0.043645 0.083424 0.022129
endloop
endfacet
facet normal -0.487879 0.855920 0.171393
outer loop
vertex -0.049416 0.080142 0.022095
vertex -0.043645 0.083424 0.022129
vertex -0.043948 0.084159 0.017599
endloop
endfacet
facet normal -0.490516 0.855178 0.167524
outer loop
vertex -0.049416 0.080142 0.022095
vertex -0.043948 0.084159 0.017599
vertex -0.050123 0.080640 0.017480
endloop
endfacet
facet normal 0.340403 0.909240 0.239601
outer loop
vertex 0.025648 0.070468 0.099299
vertex 0.037253 0.086404 0.022336
vertex 0.027698 0.090046 0.022091
endloop
endfacet
facet normal -0.211482 0.947734 0.238906
outer loop
vertex -0.013812 0.093114 0.022467
vertex -0.026912 0.090287 0.022085
vertex -0.017294 0.072969 0.099299
endloop
endfacet
facet normal 0.143367 0.978227 0.150061
outer loop
vertex 0.010453 0.094373 0.017460
vertex 0.014424 0.093031 0.022411
vertex 0.017430 0.093313 0.017699
endloop
endfacet
facet normal 0.077986 0.976281 0.201975
outer loop
vertex 0.000341 0.094175 0.022320
vertex 0.014424 0.093031 0.022411
vertex 0.010453 0.094373 0.017460
endloop
endfacet
facet normal 0.219565 0.954896 0.199914
outer loop
vertex 0.024230 0.091804 0.017503
vertex 0.014424 0.093031 0.022411
vertex 0.027698 0.090046 0.022091
endloop
endfacet
facet normal 0.217879 0.956038 0.196263
outer loop
vertex 0.017430 0.093313 0.017699
vertex 0.014424 0.093031 0.022411
vertex 0.024230 0.091804 0.017503
endloop
endfacet
facet normal -0.309730 -0.932424 0.186152
outer loop
vertex -0.024390 -0.090941 0.022335
vertex -0.034097 -0.087752 0.022154
vertex -0.027556 -0.090866 0.017440
endloop
endfacet
facet normal -0.330352 -0.930798 0.156470
outer loop
vertex -0.037159 -0.087399 0.017790
vertex -0.027556 -0.090866 0.017440
vertex -0.034097 -0.087752 0.022154
endloop
endfacet
facet normal -0.251431 -0.956481 0.148078
outer loop
vertex -0.024390 -0.090941 0.022335
vertex -0.027556 -0.090866 0.017440
vertex -0.020682 -0.092661 0.017518
endloop
endfacet
facet normal -0.252746 -0.967490 0.009080
outer loop
vertex -0.024342 -0.091870 0.000000
vertex -0.020682 -0.092661 0.017518
vertex -0.027556 -0.090866 0.017440
endloop
endfacet
facet normal -0.312868 -0.949792 -0.003016
outer loop
vertex -0.027556 -0.090866 0.017440
vertex -0.034317 -0.088584 0.000000
vertex -0.024342 -0.091870 0.000000
endloop
endfacet
facet normal -0.339300 -0.940641 0.008429
outer loop
vertex -0.034317 -0.088584 0.000000
vertex -0.027556 -0.090866 0.017440
vertex -0.037159 -0.087399 0.017790
endloop
endfacet
facet normal -0.512745 -0.858534 -0.003332
outer loop
vertex -0.043420 -0.084565 0.000000
vertex -0.046824 -0.082600 0.017480
vertex -0.052961 -0.078867 0.000000
endloop
endfacet
facet normal -0.445109 -0.895367 0.013979
outer loop
vertex -0.037159 -0.087399 0.017790
vertex -0.046824 -0.082600 0.017480
vertex -0.043420 -0.084565 0.000000
endloop
endfacet
facet normal -0.443889 -0.884564 0.143206
outer loop
vertex -0.037159 -0.087399 0.017790
vertex -0.044080 -0.083185 0.022366
vertex -0.046824 -0.082600 0.017480
endloop
endfacet
facet normal -0.643567 -0.750942 0.148015
outer loop
vertex -0.058444 -0.074821 0.017518
vertex -0.063524 -0.069683 0.021497
vertex -0.065952 -0.068366 0.017622
endloop
endfacet
facet normal -0.665823 -0.705732 0.242119
outer loop
vertex -0.054546 -0.051461 0.099299
vertex -0.063524 -0.069683 0.021497
vertex -0.048203 -0.057446 0.099299
endloop
endfacet
facet normal -0.696570 -0.688318 0.202507
outer loop
vertex -0.065952 -0.068366 0.017622
vertex -0.063524 -0.069683 0.021497
vertex -0.071118 -0.062018 0.021429
endloop
endfacet
facet normal -0.690778 -0.682250 0.239499
outer loop
vertex -0.054546 -0.051461 0.099299
vertex -0.071118 -0.062018 0.021429
vertex -0.063524 -0.069683 0.021497
endloop
endfacet
facet normal 0.269396 -0.952839 0.139726
outer loop
vertex 0.023690 -0.091131 0.022308
vertex 0.021044 -0.092587 0.017480
vertex 0.031623 -0.089557 0.017746
endloop
endfacet
facet normal 0.275027 -0.961352 0.012732
outer loop
vertex 0.021044 -0.092587 0.017480
vertex 0.023737 -0.092048 0.000000
vertex 0.031623 -0.089557 0.017746
endloop
endfacet
facet normal 0.185449 -0.982652 -0.001726
outer loop
vertex 0.023737 -0.092048 0.000000
vertex 0.021044 -0.092587 0.017480
vertex 0.014148 -0.093888 0.017480
endloop
endfacet
facet normal 0.182785 -0.968535 0.168904
outer loop
vertex 0.014148 -0.093888 0.017480
vertex 0.021044 -0.092587 0.017480
vertex 0.014017 -0.093102 0.022131
endloop
endfacet
facet normal 0.192986 -0.963629 0.184866
outer loop
vertex 0.014017 -0.093102 0.022131
vertex 0.021044 -0.092587 0.017480
vertex 0.023690 -0.091131 0.022308
endloop
endfacet
facet normal -0.912972 -0.330045 0.239900
outer loop
vertex -0.085841 -0.038681 0.022390
vertex -0.071840 -0.021507 0.099299
vertex -0.090694 -0.025455 0.022116
endloop
endfacet
facet normal -0.919587 -0.333126 0.208295
outer loop
vertex -0.085841 -0.038681 0.022390
vertex -0.090694 -0.025455 0.022116
vertex -0.090214 -0.029552 0.017681
endloop
endfacet
facet normal -0.944105 -0.223758 0.242069
outer loop
vertex -0.073851 -0.013022 0.099299
vertex -0.090694 -0.025455 0.022116
vertex -0.071840 -0.021507 0.099299
endloop
endfacet
facet normal -0.948088 -0.208148 0.240424
outer loop
vertex -0.092833 -0.015684 0.022139
vertex -0.090694 -0.025455 0.022116
vertex -0.073851 -0.013022 0.099299
endloop
endfacet
facet normal -0.814920 -0.526997 0.241203
outer loop
vertex -0.064943 -0.037495 0.099299
vertex -0.081140 -0.047812 0.022035
vertex -0.077295 -0.054004 0.021497
endloop
endfacet
facet normal -0.859205 -0.451624 0.240421
outer loop
vertex -0.085841 -0.038681 0.022390
vertex -0.081140 -0.047812 0.022035
vertex -0.064943 -0.037495 0.099299
endloop
endfacet
facet normal -0.871504 -0.455654 0.181272
outer loop
vertex -0.085841 -0.038681 0.022390
vertex -0.086279 -0.039708 0.017698
vertex -0.081140 -0.047812 0.022035
endloop
endfacet
facet normal 0.560205 0.828341 -0.004738
outer loop
vertex 0.047044 0.082630 0.000000
vertex 0.055615 0.076935 0.017681
vertex 0.058695 0.074750 0.000000
endloop
endfacet
facet normal 0.556850 0.830609 -0.002382
outer loop
vertex 0.049806 0.080828 0.017518
vertex 0.055615 0.076935 0.017681
vertex 0.047044 0.082630 0.000000
endloop
endfacet
facet normal 0.613952 0.789287 0.009451
outer loop
vertex 0.058695 0.074750 0.000000
vertex 0.055615 0.076935 0.017681
vertex 0.061204 0.072589 0.017481
endloop
endfacet
facet normal 0.611370 0.780316 0.131658
outer loop
vertex 0.058500 0.074053 0.021361
vertex 0.061204 0.072589 0.017481
vertex 0.055615 0.076935 0.017681
endloop
endfacet
facet normal 0.559352 0.806212 0.192736
outer loop
vertex 0.058500 0.074053 0.021361
vertex 0.055615 0.076935 0.017681
vertex 0.049638 0.080169 0.021497
endloop
endfacet
facet normal 0.546594 0.822109 0.159288
outer loop
vertex 0.049806 0.080828 0.017518
vertex 0.049638 0.080169 0.021497
vertex 0.055615 0.076935 0.017681
endloop
endfacet
facet normal 0.358164 0.933613 0.009243
outer loop
vertex 0.037397 0.087273 0.017481
vertex 0.034359 0.088612 0.000000
vertex 0.030853 0.089783 0.017567
endloop
endfacet
facet normal 0.426521 0.904464 -0.004868
outer loop
vertex 0.034359 0.088612 0.000000
vertex 0.037397 0.087273 0.017481
vertex 0.047044 0.082630 0.000000
endloop
endfacet
facet normal 0.354570 0.918524 0.174910
outer loop
vertex 0.037253 0.086404 0.022336
vertex 0.037397 0.087273 0.017481
vertex 0.030853 0.089783 0.017567
endloop
endfacet
facet normal 0.000003 0.000007 -1.000000
outer loop
vertex 0.014534 0.093940 -0.000000
vertex 0.024305 0.091837 -0.000000
vertex 0.047044 0.082630 0.000000
endloop
endfacet
facet normal 0.000009 0.000019 -1.000000
outer loop
vertex 0.047044 0.082630 0.000000
vertex 0.024305 0.091837 -0.000000
vertex 0.034359 0.088612 0.000000
endloop
endfacet
facet normal 0.210461 0.977602 0.000199
outer loop
vertex 0.014534 0.093940 -0.000000
vertex 0.017430 0.093313 0.017699
vertex 0.024305 0.091837 -0.000000
endloop
endfacet
facet normal 0.216765 0.976220 0.002763
outer loop
vertex 0.024230 0.091804 0.017503
vertex 0.024305 0.091837 -0.000000
vertex 0.017430 0.093313 0.017699
endloop
endfacet
facet normal 0.291863 0.956455 0.003048
outer loop
vertex 0.024230 0.091804 0.017503
vertex 0.030853 0.089783 0.017567
vertex 0.024305 0.091837 -0.000000
endloop
endfacet
facet normal 0.305457 0.952203 -0.002518
outer loop
vertex 0.034359 0.088612 0.000000
vertex 0.024305 0.091837 -0.000000
vertex 0.030853 0.089783 0.017567
endloop
endfacet
facet normal 0.943661 0.227833 0.239992
outer loop
vertex 0.092899 0.015285 0.022402
vertex 0.089664 0.028788 0.022302
vertex 0.071840 0.021507 0.099299
endloop
endfacet
facet normal 0.911664 0.331817 0.242417
outer loop
vertex 0.071840 0.021507 0.099299
vertex 0.089664 0.028788 0.022302
vertex 0.068857 0.029702 0.099299
endloop
endfacet
facet normal 0.899873 0.364946 0.238837
outer loop
vertex 0.089664 0.028788 0.022302
vertex 0.084564 0.041568 0.021990
vertex 0.068857 0.029702 0.099299
endloop
endfacet
facet normal 0.977915 0.154922 0.140288
outer loop
vertex 0.094519 0.009224 0.017797
vertex 0.092984 0.019221 0.017460
vertex 0.092899 0.015285 0.022402
endloop
endfacet
facet normal 0.952625 0.229676 0.199386
outer loop
vertex 0.089664 0.028788 0.022302
vertex 0.092899 0.015285 0.022402
vertex 0.092984 0.019221 0.017460
endloop
endfacet
facet normal 0.952865 0.231302 0.196337
outer loop
vertex 0.089664 0.028788 0.022302
vertex 0.092984 0.019221 0.017460
vertex 0.091245 0.026198 0.017681
endloop
endfacet
facet normal 0.988260 0.152224 0.013053
outer loop
vertex 0.092984 0.019221 0.017460
vertex 0.094519 0.009224 0.017797
vertex 0.093823 0.015273 -0.000000
endloop
endfacet
facet normal 0.974870 0.222745 -0.003536
outer loop
vertex 0.091372 0.025998 -0.000000
vertex 0.092984 0.019221 0.017460
vertex 0.093823 0.015273 -0.000000
endloop
endfacet
facet normal 0.970329 0.241752 0.004258
outer loop
vertex 0.091245 0.026198 0.017681
vertex 0.092984 0.019221 0.017460
vertex 0.091372 0.025998 -0.000000
endloop
endfacet
facet normal 0.978387 -0.136627 0.155213
outer loop
vertex 0.093108 -0.018725 0.017765
vertex 0.094538 -0.008778 0.017507
vertex 0.092867 -0.015483 0.022139
endloop
endfacet
facet normal 0.989796 -0.141967 0.012173
outer loop
vertex 0.094341 -0.011651 0.000000
vertex 0.094538 -0.008778 0.017507
vertex 0.093108 -0.018725 0.017765
endloop
endfacet
facet normal 0.970533 0.000000 0.240967
outer loop
vertex 0.074863 0.004360 0.099299
vertex 0.074863 -0.004360 0.099299
vertex 0.094005 -0.005692 0.022204
endloop
endfacet
facet normal 0.970560 0.000877 0.240859
outer loop
vertex 0.094007 0.005067 0.022157
vertex 0.074863 0.004360 0.099299
vertex 0.094005 -0.005692 0.022204
endloop
endfacet
facet normal 0.975814 -0.114614 0.186149
outer loop
vertex 0.094538 -0.008778 0.017507
vertex 0.094005 -0.005692 0.022204
vertex 0.092867 -0.015483 0.022139
endloop
endfacet
facet normal 0.963897 -0.112664 0.241266
outer loop
vertex 0.073851 -0.013022 0.099299
vertex 0.094005 -0.005692 0.022204
vertex 0.074863 -0.004360 0.099299
endloop
endfacet
facet normal 0.963816 -0.113588 0.241157
outer loop
vertex 0.092867 -0.015483 0.022139
vertex 0.094005 -0.005692 0.022204
vertex 0.073851 -0.013022 0.099299
endloop
endfacet
facet normal 0.703879 -0.710308 0.004249
outer loop
vertex 0.069010 -0.065287 0.000000
vertex 0.069118 -0.065074 0.017681
vertex 0.064056 -0.070092 0.017440
endloop
endfacet
facet normal 0.751150 -0.660123 0.003360
outer loop
vertex 0.073708 -0.059852 0.017480
vertex 0.069118 -0.065074 0.017681
vertex 0.069010 -0.065287 0.000000
endloop
endfacet
facet normal 0.690671 -0.704597 0.162839
outer loop
vertex 0.068497 -0.064801 0.021497
vertex 0.064056 -0.070092 0.017440
vertex 0.069118 -0.065074 0.017681
endloop
endfacet
facet normal 0.743682 -0.647248 0.167352
outer loop
vertex 0.073708 -0.059852 0.017480
vertex 0.068497 -0.064801 0.021497
vertex 0.069118 -0.065074 0.017681
endloop
endfacet
facet normal 0.641107 -0.756206 0.130895
outer loop
vertex 0.060521 -0.072396 0.021442
vertex 0.058622 -0.074679 0.017555
vertex 0.064056 -0.070092 0.017440
endloop
endfacet
facet normal 0.645136 -0.764014 0.009081
outer loop
vertex 0.064056 -0.070092 0.017440
vertex 0.058622 -0.074679 0.017555
vertex 0.061396 -0.072546 -0.000000
endloop
endfacet
facet normal 0.599682 -0.800235 -0.002504
outer loop
vertex 0.061396 -0.072546 -0.000000
vertex 0.058622 -0.074679 0.017555
vertex 0.052961 -0.078866 0.000000
endloop
endfacet
facet normal 0.578718 -0.815490 0.007895
outer loop
vertex 0.052961 -0.078866 0.000000
vertex 0.058622 -0.074679 0.017555
vertex 0.050512 -0.080433 0.017713
endloop
endfacet
facet normal 0.578246 -0.779462 0.240978
outer loop
vertex 0.060521 -0.072396 0.021442
vertex 0.041208 -0.062653 0.099299
vertex 0.052567 -0.078280 0.021497
endloop
endfacet
facet normal 0.574296 -0.805454 0.146386
outer loop
vertex 0.058622 -0.074679 0.017555
vertex 0.052567 -0.078280 0.021497
vertex 0.050512 -0.080433 0.017713
endloop
endfacet
facet normal 0.585995 -0.790527 0.177982
outer loop
vertex 0.058622 -0.074679 0.017555
vertex 0.060521 -0.072396 0.021442
vertex 0.052567 -0.078280 0.021497
endloop
endfacet
facet normal 0.511039 -0.825265 0.240366
outer loop
vertex 0.041208 -0.062653 0.099299
vertex 0.046196 -0.082055 0.022081
vertex 0.052567 -0.078280 0.021497
endloop
endfacet
facet normal 0.513095 -0.835489 0.196702
outer loop
vertex 0.050512 -0.080433 0.017713
vertex 0.052567 -0.078280 0.021497
vertex 0.046196 -0.082055 0.022081
endloop
endfacet
facet normal -0.544347 0.821020 0.172085
outer loop
vertex -0.050123 0.080640 0.017480
vertex -0.055424 0.076284 0.021497
vertex -0.049416 0.080142 0.022095
endloop
endfacet
facet normal -0.541339 0.805799 0.240084
outer loop
vertex -0.049416 0.080142 0.022095
vertex -0.055424 0.076284 0.021497
vertex -0.041208 0.062653 0.099299
endloop
endfacet
facet normal -0.599158 0.763652 0.240510
outer loop
vertex -0.048203 0.057446 0.099299
vertex -0.055424 0.076284 0.021497
vertex -0.060906 0.071982 0.021497
endloop
endfacet
facet normal -0.579378 0.778239 0.242207
outer loop
vertex -0.041208 0.062653 0.099299
vertex -0.055424 0.076284 0.021497
vertex -0.048203 0.057446 0.099299
endloop
endfacet
facet normal 0.000000 0.000000 1.000000
outer loop
vertex 0.041208 0.062653 0.099299
vertex 0.033656 0.067014 0.099299
vertex -0.064944 0.037495 0.099299
endloop
endfacet
facet normal -0.000001 0.000000 1.000000
outer loop
vertex 0.025648 0.070468 0.099299
vertex -0.064944 0.037495 0.099299
vertex 0.033656 0.067014 0.099299
endloop
endfacet
facet normal 0.485168 0.840337 0.241757
outer loop
vertex 0.033656 0.067014 0.099299
vertex 0.041208 0.062653 0.099299
vertex 0.049638 0.080169 0.021497
endloop
endfacet
facet normal 0.481799 0.842373 0.241408
outer loop
vertex 0.043479 0.083506 0.022146
vertex 0.033656 0.067014 0.099299
vertex 0.049638 0.080169 0.021497
endloop
endfacet
facet normal 0.384268 0.890831 0.242403
outer loop
vertex 0.025648 0.070468 0.099299
vertex 0.033656 0.067014 0.099299
vertex 0.037253 0.086404 0.022336
endloop
endfacet
facet normal 0.415692 0.877152 0.240426
outer loop
vertex 0.043479 0.083506 0.022146
vertex 0.037253 0.086404 0.022336
vertex 0.033656 0.067014 0.099299
endloop
endfacet
facet normal 0.000000 0.000000 1.000000
outer loop
vertex 0.025648 0.070468 0.099299
vertex 0.017294 0.072969 0.099299
vertex -0.064944 0.037495 0.099299
endloop
endfacet
facet normal 0.278204 0.929269 0.243028
outer loop
vertex 0.027698 0.090046 0.022091
vertex 0.017294 0.072969 0.099299
vertex 0.025648 0.070468 0.099299
endloop
endfacet
facet normal 0.218540 0.946176 0.238729
outer loop
vertex 0.014424 0.093031 0.022411
vertex 0.017294 0.072969 0.099299
vertex 0.027698 0.090046 0.022091
endloop
endfacet
facet normal 0.000000 0.000000 1.000000
outer loop
vertex -0.017294 0.072969 0.099299
vertex -0.025648 0.070468 0.099299
vertex -0.064944 0.037495 0.099299
endloop
endfacet
facet normal -0.335669 0.911066 0.239344
outer loop
vertex -0.037160 0.086428 0.022400
vertex -0.025648 0.070468 0.099299
vertex -0.026912 0.090287 0.022085
endloop
endfacet
facet normal -0.278202 0.929257 0.243073
outer loop
vertex -0.025648 0.070468 0.099299
vertex -0.017294 0.072969 0.099299
vertex -0.026912 0.090287 0.022085
endloop
endfacet
facet normal 0.000000 0.000000 1.000000
outer loop
vertex -0.000000 0.074990 0.099299
vertex -0.008706 0.074483 0.099299
vertex -0.064944 0.037495 0.099299
endloop
endfacet
facet normal 0.000001 0.000000 1.000000
outer loop
vertex -0.064944 0.037495 0.099299
vertex -0.008706 0.074483 0.099299
vertex -0.017294 0.072969 0.099299
endloop
endfacet
facet normal -0.168449 0.955327 0.242847
outer loop
vertex -0.017294 0.072969 0.099299
vertex -0.008706 0.074483 0.099299
vertex -0.013812 0.093114 0.022467
endloop
endfacet
facet normal -0.070121 0.968367 0.239475
outer loop
vertex -0.013812 0.093114 0.022467
vertex -0.008706 0.074483 0.099299
vertex 0.000341 0.094175 0.022320
endloop
endfacet
facet normal -0.056429 0.968833 0.241203
outer loop
vertex 0.000341 0.094175 0.022320
vertex -0.008706 0.074483 0.099299
vertex -0.000000 0.074990 0.099299
endloop
endfacet
facet normal -0.584847 -0.811132 0.004262
outer loop
vertex -0.052961 -0.078867 0.000000
vertex -0.052734 -0.078937 0.017681
vertex -0.058444 -0.074821 0.017518
endloop
endfacet
facet normal -0.526657 -0.850071 0.003358
outer loop
vertex -0.046824 -0.082600 0.017480
vertex -0.052734 -0.078937 0.017681
vertex -0.052961 -0.078867 0.000000
endloop
endfacet
facet normal -0.627043 -0.741078 0.240042
outer loop
vertex -0.063524 -0.069683 0.021497
vertex -0.058204 -0.074184 0.021497
vertex -0.048203 -0.057446 0.099299
endloop
endfacet
facet normal -0.637708 -0.753682 0.159034
outer loop
vertex -0.058444 -0.074821 0.017518
vertex -0.058204 -0.074184 0.021497
vertex -0.063524 -0.069683 0.021497
endloop
endfacet
facet normal -0.579419 -0.778296 0.241926
outer loop
vertex -0.041208 -0.062653 0.099299
vertex -0.048203 -0.057446 0.099299
vertex -0.058204 -0.074184 0.021497
endloop
endfacet
facet normal -0.580045 -0.798175 0.162682
outer loop
vertex -0.052734 -0.078937 0.017681
vertex -0.058204 -0.074184 0.021497
vertex -0.058444 -0.074821 0.017518
endloop
endfacet
facet normal -0.968691 -0.192564 0.156707
outer loop
vertex -0.094093 -0.012919 0.017748
vertex -0.092182 -0.022751 0.017480
vertex -0.092833 -0.015684 0.022139
endloop
endfacet
facet normal -0.959852 -0.210595 0.185294
outer loop
vertex -0.092833 -0.015684 0.022139
vertex -0.092182 -0.022751 0.017480
vertex -0.090694 -0.025455 0.022116
endloop
endfacet
facet normal -0.951262 -0.270891 0.147372
outer loop
vertex -0.090694 -0.025455 0.022116
vertex -0.092182 -0.022751 0.017480
vertex -0.090214 -0.029552 0.017681
endloop
endfacet
facet normal -0.960629 -0.277672 0.009451
outer loop
vertex -0.090214 -0.029552 0.017681
vertex -0.092182 -0.022751 0.017480
vertex -0.091422 -0.025974 0.000000
endloop
endfacet
facet normal -0.976417 -0.215875 -0.002630
outer loop
vertex -0.093688 -0.015727 0.000000
vertex -0.091422 -0.025974 0.000000
vertex -0.092182 -0.022751 0.017480
endloop
endfacet
facet normal -0.981558 -0.191006 0.007803
outer loop
vertex -0.093688 -0.015727 0.000000
vertex -0.092182 -0.022751 0.017480
vertex -0.094093 -0.012919 0.017748
endloop
endfacet
facet normal -0.870245 -0.465314 0.161732
outer loop
vertex -0.081552 -0.048625 0.017480
vertex -0.081140 -0.047812 0.022035
vertex -0.086279 -0.039708 0.017698
endloop
endfacet
facet normal -0.838523 -0.544788 0.009241
outer loop
vertex -0.077734 -0.054501 0.017567
vertex -0.081552 -0.048625 0.017480
vertex -0.079882 -0.051492 0.000000
endloop
endfacet
facet normal -0.828741 -0.536206 0.160221
outer loop
vertex -0.077734 -0.054501 0.017567
vertex -0.077295 -0.054004 0.021497
vertex -0.081552 -0.048625 0.017480
endloop
endfacet
facet normal -0.830522 -0.530483 0.169768
outer loop
vertex -0.081140 -0.047812 0.022035
vertex -0.081552 -0.048625 0.017480
vertex -0.077295 -0.054004 0.021497
endloop
endfacet
facet normal -0.876693 -0.481025 -0.004867
outer loop
vertex -0.079882 -0.051492 0.000000
vertex -0.081552 -0.048625 0.017480
vertex -0.086628 -0.039197 0.000000
endloop
endfacet
facet normal -0.883472 -0.468468 0.003873
outer loop
vertex -0.086279 -0.039708 0.017698
vertex -0.086628 -0.039197 0.000000
vertex -0.081552 -0.048625 0.017480
endloop
endfacet
facet normal 0.491624 0.870724 0.012028
outer loop
vertex 0.047044 0.082630 0.000000
vertex 0.043675 0.084288 0.017681
vertex 0.049806 0.080828 0.017518
endloop
endfacet
facet normal 0.429524 0.903051 -0.002834
outer loop
vertex 0.037397 0.087273 0.017481
vertex 0.043675 0.084288 0.017681
vertex 0.047044 0.082630 0.000000
endloop
endfacet
facet normal 0.488161 0.857458 0.162681
outer loop
vertex 0.049806 0.080828 0.017518
vertex 0.043675 0.084288 0.017681
vertex 0.049638 0.080169 0.021497
endloop
endfacet
facet normal 0.483202 0.858530 0.171589
outer loop
vertex 0.049638 0.080169 0.021497
vertex 0.043675 0.084288 0.017681
vertex 0.043479 0.083506 0.022146
endloop
endfacet
facet normal 0.419948 0.890628 0.174431
outer loop
vertex 0.043479 0.083506 0.022146
vertex 0.043675 0.084288 0.017681
vertex 0.037253 0.086404 0.022336
endloop
endfacet
facet normal 0.418558 0.891753 0.172004
outer loop
vertex 0.043675 0.084288 0.017681
vertex 0.037397 0.087273 0.017481
vertex 0.037253 0.086404 0.022336
endloop
endfacet
facet normal 0.908344 0.373174 0.188821
outer loop
vertex 0.084564 0.041568 0.021990
vertex 0.089099 0.032811 0.017480
vertex 0.086432 0.039302 0.017480
endloop
endfacet
facet normal 0.908305 0.367368 0.200059
outer loop
vertex 0.089664 0.028788 0.022302
vertex 0.089099 0.032811 0.017480
vertex 0.084564 0.041568 0.021990
endloop
endfacet
facet normal 0.939368 0.309334 0.147986
outer loop
vertex 0.091245 0.026198 0.017681
vertex 0.089099 0.032811 0.017480
vertex 0.089664 0.028788 0.022302
endloop
endfacet
facet normal 0.924946 0.379995 0.008882
outer loop
vertex 0.089099 0.032811 0.017480
vertex 0.087977 0.035949 0.000000
vertex 0.086432 0.039302 0.017480
endloop
endfacet
facet normal 0.946440 0.322867 -0.002751
outer loop
vertex 0.089099 0.032811 0.017480
vertex 0.091372 0.025998 -0.000000
vertex 0.087977 0.035949 0.000000
endloop
endfacet
facet normal 0.951135 0.308758 0.003359
outer loop
vertex 0.091372 0.025998 -0.000000
vertex 0.089099 0.032811 0.017480
vertex 0.091245 0.026198 0.017681
endloop
endfacet
facet normal 0.988482 0.033015 0.147694
outer loop
vertex 0.094007 0.005067 0.022157
vertex 0.094935 -0.001701 0.017460
vertex 0.094519 0.009224 0.017797
endloop
endfacet
facet normal 0.981222 0.000664 0.192882
outer loop
vertex 0.094005 -0.005692 0.022204
vertex 0.094935 -0.001701 0.017460
vertex 0.094007 0.005067 0.022157
endloop
endfacet
facet normal 0.987516 -0.054314 0.147856
outer loop
vertex 0.094538 -0.008778 0.017507
vertex 0.094935 -0.001701 0.017460
vertex 0.094005 -0.005692 0.022204
endloop
endfacet
facet normal 0.999215 0.037591 0.012485
outer loop
vertex 0.094519 0.009224 0.017797
vertex 0.094935 -0.001701 0.017460
vertex 0.095023 0.001734 -0.000000
endloop
endfacet
facet normal 0.998692 -0.050886 -0.004926
outer loop
vertex 0.095023 0.001734 -0.000000
vertex 0.094935 -0.001701 0.017460
vertex 0.094341 -0.011651 0.000000
endloop
endfacet
facet normal 0.998433 -0.055923 -0.002045
outer loop
vertex 0.094935 -0.001701 0.017460
vertex 0.094538 -0.008778 0.017507
vertex 0.094341 -0.011651 0.000000
endloop
endfacet
facet normal -0.549858 0.819225 0.162871
outer loop
vertex -0.055984 0.076667 0.017681
vertex -0.055424 0.076284 0.021497
vertex -0.050123 0.080640 0.017480
endloop
endfacet
facet normal -0.560935 0.827806 0.009451
outer loop
vertex -0.052954 0.078921 0.000000
vertex -0.055984 0.076667 0.017681
vertex -0.050123 0.080640 0.017480
endloop
endfacet
facet normal -0.625937 0.768035 0.135370
outer loop
vertex -0.060906 0.071982 0.021497
vertex -0.055984 0.076667 0.017681
vertex -0.064358 0.069855 0.017609
endloop
endfacet
facet normal -0.608596 0.775681 0.167121
outer loop
vertex -0.055424 0.076284 0.021497
vertex -0.055984 0.076667 0.017681
vertex -0.060906 0.071982 0.021497
endloop
endfacet
facet normal -0.631064 0.775697 0.007231
outer loop
vertex -0.055984 0.076667 0.017681
vertex -0.064079 0.070246 0.000000
vertex -0.064358 0.069855 0.017609
endloop
endfacet
facet normal -0.614956 0.788547 -0.004812
outer loop
vertex -0.064079 0.070246 0.000000
vertex -0.055984 0.076667 0.017681
vertex -0.052954 0.078921 0.000000
endloop
endfacet
facet normal 0.000000 0.000000 1.000000
outer loop
vertex -0.000000 0.074990 0.099299
vertex -0.064944 0.037495 0.099299
vertex 0.008706 0.074483 0.099299
endloop
endfacet
facet normal 0.000000 0.000000 1.000000
outer loop
vertex 0.017294 0.072969 0.099299
vertex 0.008706 0.074483 0.099299
vertex -0.064944 0.037495 0.099299
endloop
endfacet
facet normal 0.168443 0.955295 0.242978
outer loop
vertex 0.014424 0.093031 0.022411
vertex 0.008706 0.074483 0.099299
vertex 0.017294 0.072969 0.099299
endloop
endfacet
facet normal 0.056421 0.968716 0.241674
outer loop
vertex -0.000000 0.074990 0.099299
vertex 0.008706 0.074483 0.099299
vertex 0.000341 0.094175 0.022320
endloop
endfacet
facet normal 0.077065 0.967902 0.239222
outer loop
vertex 0.008706 0.074483 0.099299
vertex 0.014424 0.093031 0.022411
vertex 0.000341 0.094175 0.022320
endloop
endfacet
facet normal 0.000000 0.000001 1.000000
outer loop
vertex -0.033656 0.067014 0.099299
vertex -0.041208 0.062653 0.099299
vertex -0.064944 0.037495 0.099299
endloop
endfacet
facet normal 0.000000 0.000000 1.000000
outer loop
vertex -0.025648 0.070468 0.099299
vertex -0.033656 0.067014 0.099299
vertex -0.064944 0.037495 0.099299
endloop
endfacet
facet normal -0.480878 0.842875 0.241491
outer loop
vertex -0.049416 0.080142 0.022095
vertex -0.033656 0.067014 0.099299
vertex -0.043645 0.083424 0.022129
endloop
endfacet
facet normal -0.485148 0.840299 0.241925
outer loop
vertex -0.041208 0.062653 0.099299
vertex -0.033656 0.067014 0.099299
vertex -0.049416 0.080142 0.022095
endloop
endfacet
facet normal -0.416238 0.876910 0.240362
outer loop
vertex -0.043645 0.083424 0.022129
vertex -0.033656 0.067014 0.099299
vertex -0.037160 0.086428 0.022400
endloop
endfacet
facet normal -0.384266 0.890827 0.242418
outer loop
vertex -0.033656 0.067014 0.099299
vertex -0.025648 0.070468 0.099299
vertex -0.037160 0.086428 0.022400
endloop
endfacet
facet normal -0.579937 -0.798212 0.162883
outer loop
vertex -0.052567 -0.078280 0.021497
vertex -0.058204 -0.074184 0.021497
vertex -0.052734 -0.078937 0.017681
endloop
endfacet
facet normal -0.570464 -0.785172 0.240989
outer loop
vertex -0.058204 -0.074184 0.021497
vertex -0.052567 -0.078280 0.021497
vertex -0.041208 -0.062653 0.099299
endloop
endfacet
facet normal -0.504100 -0.829566 0.240216
outer loop
vertex -0.041208 -0.062653 0.099299
vertex -0.052567 -0.078280 0.021497
vertex -0.044080 -0.083185 0.022366
endloop
endfacet
facet normal -0.505962 -0.842907 0.183059
outer loop
vertex -0.046824 -0.082600 0.017480
vertex -0.044080 -0.083185 0.022366
vertex -0.052567 -0.078280 0.021497
endloop
endfacet
facet normal -0.515198 -0.840574 0.167351
outer loop
vertex -0.052734 -0.078937 0.017681
vertex -0.046824 -0.082600 0.017480
vertex -0.052567 -0.078280 0.021497
endloop
endfacet
endsolid Exported from Blender-3.4.1
